<svg xmlns="http://www.w3.org/2000/svg" xmlns:xlink="http://www.w3.org/1999/xlink" width="1324" zoomAndPan="magnify" viewBox="0 0 993 809.999993" height="1080" preserveAspectRatio="xMidYMid meet" version="1.0"><defs><clipPath id="73eeeb4455"><path d="M 125 439 L 312 439 L 312 717 L 125 717 Z M 125 439 " clip-rule="nonzero"/></clipPath><clipPath id="643a7c2c1f"><path d="M 138.65625 301.597656 L 534.75 399.449219 L 425.207031 842.867188 L 29.117188 745.019531 Z M 138.65625 301.597656 " clip-rule="nonzero"/></clipPath><clipPath id="f2e914ef6e"><path d="M 138.65625 301.597656 L 534.75 399.449219 L 425.207031 842.867188 L 29.117188 745.019531 Z M 138.65625 301.597656 " clip-rule="nonzero"/></clipPath><clipPath id="c65ae5f7ca"><path d="M 138.65625 301.597656 L 534.75 399.449219 L 425.207031 842.867188 L 29.117188 745.019531 Z M 138.65625 301.597656 " clip-rule="nonzero"/></clipPath><clipPath id="cc83b73f71"><path d="M 310 576 L 406 576 L 406 660 L 310 660 Z M 310 576 " clip-rule="nonzero"/></clipPath><clipPath id="292b4fe4f5"><path d="M 138.65625 301.597656 L 534.75 399.449219 L 425.207031 842.867188 L 29.117188 745.019531 Z M 138.65625 301.597656 " clip-rule="nonzero"/></clipPath><clipPath id="5676f56d53"><path d="M 138.65625 301.597656 L 534.75 399.449219 L 425.207031 842.867188 L 29.117188 745.019531 Z M 138.65625 301.597656 " clip-rule="nonzero"/></clipPath><clipPath id="0075e732c8"><path d="M 138.65625 301.597656 L 534.75 399.449219 L 425.207031 842.867188 L 29.117188 745.019531 Z M 138.65625 301.597656 " clip-rule="nonzero"/></clipPath><clipPath id="f256a0a808"><path d="M 318 474 L 425 474 L 425 580 L 318 580 Z M 318 474 " clip-rule="nonzero"/></clipPath><clipPath id="67a0432a4c"><path d="M 138.65625 301.597656 L 534.75 399.449219 L 425.207031 842.867188 L 29.117188 745.019531 Z M 138.65625 301.597656 " clip-rule="nonzero"/></clipPath><clipPath id="22a05afb12"><path d="M 138.65625 301.597656 L 534.75 399.449219 L 425.207031 842.867188 L 29.117188 745.019531 Z M 138.65625 301.597656 " clip-rule="nonzero"/></clipPath><clipPath id="ed2b649d62"><path d="M 138.65625 301.597656 L 534.75 399.449219 L 425.207031 842.867188 L 29.117188 745.019531 Z M 138.65625 301.597656 " clip-rule="nonzero"/></clipPath><clipPath id="25467786dd"><path d="M 245 646 L 326 646 L 326 683 L 245 683 Z M 245 646 " clip-rule="nonzero"/></clipPath><clipPath id="6a1b75fdab"><path d="M 138.65625 301.597656 L 534.75 399.449219 L 425.207031 842.867188 L 29.117188 745.019531 Z M 138.65625 301.597656 " clip-rule="nonzero"/></clipPath><clipPath id="a23bd7703a"><path d="M 138.65625 301.597656 L 534.75 399.449219 L 425.207031 842.867188 L 29.117188 745.019531 Z M 138.65625 301.597656 " clip-rule="nonzero"/></clipPath><clipPath id="2350d395fc"><path d="M 138.65625 301.597656 L 534.75 399.449219 L 425.207031 842.867188 L 29.117188 745.019531 Z M 138.65625 301.597656 " clip-rule="nonzero"/></clipPath><clipPath id="4b798c0b85"><path d="M 204 497 L 287 497 L 287 591 L 204 591 Z M 204 497 " clip-rule="nonzero"/></clipPath><clipPath id="a49aa8f1c3"><path d="M 138.65625 301.597656 L 534.75 399.449219 L 425.207031 842.867188 L 29.117188 745.019531 Z M 138.65625 301.597656 " clip-rule="nonzero"/></clipPath><clipPath id="1377996fb8"><path d="M 138.65625 301.597656 L 534.75 399.449219 L 425.207031 842.867188 L 29.117188 745.019531 Z M 138.65625 301.597656 " clip-rule="nonzero"/></clipPath><clipPath id="c5bb320133"><path d="M 138.65625 301.597656 L 534.75 399.449219 L 425.207031 842.867188 L 29.117188 745.019531 Z M 138.65625 301.597656 " clip-rule="nonzero"/></clipPath><clipPath id="c8337244a4"><path d="M 185 577 L 220 577 L 220 614 L 185 614 Z M 185 577 " clip-rule="nonzero"/></clipPath><clipPath id="aaf6d99bf5"><path d="M 138.65625 301.597656 L 534.75 399.449219 L 425.207031 842.867188 L 29.117188 745.019531 Z M 138.65625 301.597656 " clip-rule="nonzero"/></clipPath><clipPath id="dba1e9dea9"><path d="M 138.65625 301.597656 L 534.75 399.449219 L 425.207031 842.867188 L 29.117188 745.019531 Z M 138.65625 301.597656 " clip-rule="nonzero"/></clipPath><clipPath id="93600f8a25"><path d="M 138.65625 301.597656 L 534.75 399.449219 L 425.207031 842.867188 L 29.117188 745.019531 Z M 138.65625 301.597656 " clip-rule="nonzero"/></clipPath><clipPath id="e614fea9f5"><path d="M 159 520 L 207 520 L 207 534 L 159 534 Z M 159 520 " clip-rule="nonzero"/></clipPath><clipPath id="b6ea146fc8"><path d="M 138.65625 301.597656 L 534.75 399.449219 L 425.207031 842.867188 L 29.117188 745.019531 Z M 138.65625 301.597656 " clip-rule="nonzero"/></clipPath><clipPath id="c0ac6322ff"><path d="M 138.65625 301.597656 L 534.75 399.449219 L 425.207031 842.867188 L 29.117188 745.019531 Z M 138.65625 301.597656 " clip-rule="nonzero"/></clipPath><clipPath id="77c40b3c63"><path d="M 138.65625 301.597656 L 534.75 399.449219 L 425.207031 842.867188 L 29.117188 745.019531 Z M 138.65625 301.597656 " clip-rule="nonzero"/></clipPath><clipPath id="b4d434e77c"><path d="M 224 452 L 240 452 L 240 499 L 224 499 Z M 224 452 " clip-rule="nonzero"/></clipPath><clipPath id="25930ee7b0"><path d="M 138.65625 301.597656 L 534.75 399.449219 L 425.207031 842.867188 L 29.117188 745.019531 Z M 138.65625 301.597656 " clip-rule="nonzero"/></clipPath><clipPath id="e46bc08f65"><path d="M 138.65625 301.597656 L 534.75 399.449219 L 425.207031 842.867188 L 29.117188 745.019531 Z M 138.65625 301.597656 " clip-rule="nonzero"/></clipPath><clipPath id="c3a3999e0d"><path d="M 138.65625 301.597656 L 534.75 399.449219 L 425.207031 842.867188 L 29.117188 745.019531 Z M 138.65625 301.597656 " clip-rule="nonzero"/></clipPath><clipPath id="397567603e"><path d="M 211 370 L 320 370 L 320 511 L 211 511 Z M 211 370 " clip-rule="nonzero"/></clipPath><clipPath id="1c7be4c896"><path d="M 138.65625 301.597656 L 534.75 399.449219 L 425.207031 842.867188 L 29.117188 745.019531 Z M 138.65625 301.597656 " clip-rule="nonzero"/></clipPath><clipPath id="b390cc605f"><path d="M 138.65625 301.597656 L 534.75 399.449219 L 425.207031 842.867188 L 29.117188 745.019531 Z M 138.65625 301.597656 " clip-rule="nonzero"/></clipPath><clipPath id="f4470d4638"><path d="M 138.65625 301.597656 L 534.75 399.449219 L 425.207031 842.867188 L 29.117188 745.019531 Z M 138.65625 301.597656 " clip-rule="nonzero"/></clipPath><clipPath id="685f25f8f7"><path d="M 258 382 L 353 382 L 353 476 L 258 476 Z M 258 382 " clip-rule="nonzero"/></clipPath><clipPath id="2bb5658cff"><path d="M 138.65625 301.597656 L 534.75 399.449219 L 425.207031 842.867188 L 29.117188 745.019531 Z M 138.65625 301.597656 " clip-rule="nonzero"/></clipPath><clipPath id="79e3e23918"><path d="M 138.65625 301.597656 L 534.75 399.449219 L 425.207031 842.867188 L 29.117188 745.019531 Z M 138.65625 301.597656 " clip-rule="nonzero"/></clipPath><clipPath id="ce0f352ad3"><path d="M 138.65625 301.597656 L 534.75 399.449219 L 425.207031 842.867188 L 29.117188 745.019531 Z M 138.65625 301.597656 " clip-rule="nonzero"/></clipPath><clipPath id="b6535049e8"><path d="M 225 428 L 306 428 L 306 465 L 225 465 Z M 225 428 " clip-rule="nonzero"/></clipPath><clipPath id="0c3073218e"><path d="M 138.65625 301.597656 L 534.75 399.449219 L 425.207031 842.867188 L 29.117188 745.019531 Z M 138.65625 301.597656 " clip-rule="nonzero"/></clipPath><clipPath id="83674f31b2"><path d="M 138.65625 301.597656 L 534.75 399.449219 L 425.207031 842.867188 L 29.117188 745.019531 Z M 138.65625 301.597656 " clip-rule="nonzero"/></clipPath><clipPath id="352306520c"><path d="M 138.65625 301.597656 L 534.75 399.449219 L 425.207031 842.867188 L 29.117188 745.019531 Z M 138.65625 301.597656 " clip-rule="nonzero"/></clipPath><clipPath id="d2f91bb49f"><path d="M 284 509 L 345 509 L 345 568 L 284 568 Z M 284 509 " clip-rule="nonzero"/></clipPath><clipPath id="1d2389ee42"><path d="M 138.65625 301.597656 L 534.75 399.449219 L 425.207031 842.867188 L 29.117188 745.019531 Z M 138.65625 301.597656 " clip-rule="nonzero"/></clipPath><clipPath id="a104f390ba"><path d="M 138.65625 301.597656 L 534.75 399.449219 L 425.207031 842.867188 L 29.117188 745.019531 Z M 138.65625 301.597656 " clip-rule="nonzero"/></clipPath><clipPath id="44e9a8bf64"><path d="M 138.65625 301.597656 L 534.75 399.449219 L 425.207031 842.867188 L 29.117188 745.019531 Z M 138.65625 301.597656 " clip-rule="nonzero"/></clipPath><clipPath id="d092735703"><path d="M 311 486 L 366 486 L 366 602 L 311 602 Z M 311 486 " clip-rule="nonzero"/></clipPath><clipPath id="7894b7fd19"><path d="M 138.65625 301.597656 L 534.75 399.449219 L 425.207031 842.867188 L 29.117188 745.019531 Z M 138.65625 301.597656 " clip-rule="nonzero"/></clipPath><clipPath id="df22ad6d43"><path d="M 138.65625 301.597656 L 534.75 399.449219 L 425.207031 842.867188 L 29.117188 745.019531 Z M 138.65625 301.597656 " clip-rule="nonzero"/></clipPath><clipPath id="038449fe11"><path d="M 138.65625 301.597656 L 534.75 399.449219 L 425.207031 842.867188 L 29.117188 745.019531 Z M 138.65625 301.597656 " clip-rule="nonzero"/></clipPath><clipPath id="cbfa989357"><path d="M 198 623 L 279 623 L 279 660 L 198 660 Z M 198 623 " clip-rule="nonzero"/></clipPath><clipPath id="743d9f4fc6"><path d="M 138.65625 301.597656 L 534.75 399.449219 L 425.207031 842.867188 L 29.117188 745.019531 Z M 138.65625 301.597656 " clip-rule="nonzero"/></clipPath><clipPath id="23a270b618"><path d="M 138.65625 301.597656 L 534.75 399.449219 L 425.207031 842.867188 L 29.117188 745.019531 Z M 138.65625 301.597656 " clip-rule="nonzero"/></clipPath><clipPath id="de90f04e72"><path d="M 138.65625 301.597656 L 534.75 399.449219 L 425.207031 842.867188 L 29.117188 745.019531 Z M 138.65625 301.597656 " clip-rule="nonzero"/></clipPath><clipPath id="d625cdae79"><path d="M 192 600 L 273 600 L 273 637 L 192 637 Z M 192 600 " clip-rule="nonzero"/></clipPath><clipPath id="2fe94acb53"><path d="M 138.65625 301.597656 L 534.75 399.449219 L 425.207031 842.867188 L 29.117188 745.019531 Z M 138.65625 301.597656 " clip-rule="nonzero"/></clipPath><clipPath id="9c47df542e"><path d="M 138.65625 301.597656 L 534.75 399.449219 L 425.207031 842.867188 L 29.117188 745.019531 Z M 138.65625 301.597656 " clip-rule="nonzero"/></clipPath><clipPath id="32630960b6"><path d="M 138.65625 301.597656 L 534.75 399.449219 L 425.207031 842.867188 L 29.117188 745.019531 Z M 138.65625 301.597656 " clip-rule="nonzero"/></clipPath><clipPath id="05d17e7888"><path d="M 334 526 L 369 526 L 369 608 L 334 608 Z M 334 526 " clip-rule="nonzero"/></clipPath><clipPath id="283a889c7b"><path d="M 138.65625 301.597656 L 534.75 399.449219 L 425.207031 842.867188 L 29.117188 745.019531 Z M 138.65625 301.597656 " clip-rule="nonzero"/></clipPath><clipPath id="c7d97982ee"><path d="M 138.65625 301.597656 L 534.75 399.449219 L 425.207031 842.867188 L 29.117188 745.019531 Z M 138.65625 301.597656 " clip-rule="nonzero"/></clipPath><clipPath id="d41969fba8"><path d="M 138.65625 301.597656 L 534.75 399.449219 L 425.207031 842.867188 L 29.117188 745.019531 Z M 138.65625 301.597656 " clip-rule="nonzero"/></clipPath><clipPath id="4886a47759"><path d="M 232 451 L 313 451 L 313 488 L 232 488 Z M 232 451 " clip-rule="nonzero"/></clipPath><clipPath id="fdc0ffbd15"><path d="M 138.65625 301.597656 L 534.75 399.449219 L 425.207031 842.867188 L 29.117188 745.019531 Z M 138.65625 301.597656 " clip-rule="nonzero"/></clipPath><clipPath id="7a4002f091"><path d="M 138.65625 301.597656 L 534.75 399.449219 L 425.207031 842.867188 L 29.117188 745.019531 Z M 138.65625 301.597656 " clip-rule="nonzero"/></clipPath><clipPath id="4337fe9b9d"><path d="M 138.65625 301.597656 L 534.75 399.449219 L 425.207031 842.867188 L 29.117188 745.019531 Z M 138.65625 301.597656 " clip-rule="nonzero"/></clipPath><clipPath id="c69b528949"><path d="M 58 589 L 154 589 L 154 683 L 58 683 Z M 58 589 " clip-rule="nonzero"/></clipPath><clipPath id="2dc9bcfc9f"><path d="M 138.65625 301.597656 L 534.75 399.449219 L 425.207031 842.867188 L 29.117188 745.019531 Z M 138.65625 301.597656 " clip-rule="nonzero"/></clipPath><clipPath id="94b3d2abba"><path d="M 138.65625 301.597656 L 534.75 399.449219 L 425.207031 842.867188 L 29.117188 745.019531 Z M 138.65625 301.597656 " clip-rule="nonzero"/></clipPath><clipPath id="bd4ebd78df"><path d="M 138.65625 301.597656 L 534.75 399.449219 L 425.207031 842.867188 L 29.117188 745.019531 Z M 138.65625 301.597656 " clip-rule="nonzero"/></clipPath><clipPath id="47dd45a530"><path d="M 39 668 L 135 668 L 135 763 L 39 763 Z M 39 668 " clip-rule="nonzero"/></clipPath><clipPath id="80de6c4057"><path d="M 138.65625 301.597656 L 534.75 399.449219 L 425.207031 842.867188 L 29.117188 745.019531 Z M 138.65625 301.597656 " clip-rule="nonzero"/></clipPath><clipPath id="66fcf269a9"><path d="M 138.65625 301.597656 L 534.75 399.449219 L 425.207031 842.867188 L 29.117188 745.019531 Z M 138.65625 301.597656 " clip-rule="nonzero"/></clipPath><clipPath id="dd2bf83139"><path d="M 138.65625 301.597656 L 534.75 399.449219 L 425.207031 842.867188 L 29.117188 745.019531 Z M 138.65625 301.597656 " clip-rule="nonzero"/></clipPath><clipPath id="ff7f828b4d"><path d="M 76 606 L 137 606 L 137 665 L 76 665 Z M 76 606 " clip-rule="nonzero"/></clipPath><clipPath id="027bf26f90"><path d="M 138.65625 301.597656 L 534.75 399.449219 L 425.207031 842.867188 L 29.117188 745.019531 Z M 138.65625 301.597656 " clip-rule="nonzero"/></clipPath><clipPath id="a14491d3f8"><path d="M 138.65625 301.597656 L 534.75 399.449219 L 425.207031 842.867188 L 29.117188 745.019531 Z M 138.65625 301.597656 " clip-rule="nonzero"/></clipPath><clipPath id="ffc12c5e93"><path d="M 138.65625 301.597656 L 534.75 399.449219 L 425.207031 842.867188 L 29.117188 745.019531 Z M 138.65625 301.597656 " clip-rule="nonzero"/></clipPath><clipPath id="e945e5c905"><path d="M 396 416 L 492 416 L 492 511 L 396 511 Z M 396 416 " clip-rule="nonzero"/></clipPath><clipPath id="b23533b079"><path d="M 138.65625 301.597656 L 534.75 399.449219 L 425.207031 842.867188 L 29.117188 745.019531 Z M 138.65625 301.597656 " clip-rule="nonzero"/></clipPath><clipPath id="6a9afed017"><path d="M 138.65625 301.597656 L 534.75 399.449219 L 425.207031 842.867188 L 29.117188 745.019531 Z M 138.65625 301.597656 " clip-rule="nonzero"/></clipPath><clipPath id="e24bf435cd"><path d="M 138.65625 301.597656 L 534.75 399.449219 L 425.207031 842.867188 L 29.117188 745.019531 Z M 138.65625 301.597656 " clip-rule="nonzero"/></clipPath><clipPath id="1435146ba0"><path d="M 414 434 L 475 434 L 475 493 L 414 493 Z M 414 434 " clip-rule="nonzero"/></clipPath><clipPath id="1341d75d5a"><path d="M 138.65625 301.597656 L 534.75 399.449219 L 425.207031 842.867188 L 29.117188 745.019531 Z M 138.65625 301.597656 " clip-rule="nonzero"/></clipPath><clipPath id="3441e64d01"><path d="M 138.65625 301.597656 L 534.75 399.449219 L 425.207031 842.867188 L 29.117188 745.019531 Z M 138.65625 301.597656 " clip-rule="nonzero"/></clipPath><clipPath id="6e906246ef"><path d="M 138.65625 301.597656 L 534.75 399.449219 L 425.207031 842.867188 L 29.117188 745.019531 Z M 138.65625 301.597656 " clip-rule="nonzero"/></clipPath><clipPath id="23e8a08710"><path d="M 456 508 L 505 508 L 505 557 L 456 557 Z M 456 508 " clip-rule="nonzero"/></clipPath><clipPath id="421f440200"><path d="M 138.65625 301.597656 L 534.75 399.449219 L 425.207031 842.867188 L 29.117188 745.019531 Z M 138.65625 301.597656 " clip-rule="nonzero"/></clipPath><clipPath id="c2b534c68d"><path d="M 138.65625 301.597656 L 534.75 399.449219 L 425.207031 842.867188 L 29.117188 745.019531 Z M 138.65625 301.597656 " clip-rule="nonzero"/></clipPath><clipPath id="0e278dc96d"><path d="M 138.65625 301.597656 L 534.75 399.449219 L 425.207031 842.867188 L 29.117188 745.019531 Z M 138.65625 301.597656 " clip-rule="nonzero"/></clipPath><clipPath id="d9e8b9c3e4"><path d="M 131 691 L 181 691 L 181 740 L 131 740 Z M 131 691 " clip-rule="nonzero"/></clipPath><clipPath id="a7c50dc7c8"><path d="M 138.65625 301.597656 L 534.75 399.449219 L 425.207031 842.867188 L 29.117188 745.019531 Z M 138.65625 301.597656 " clip-rule="nonzero"/></clipPath><clipPath id="403168bc31"><path d="M 138.65625 301.597656 L 534.75 399.449219 L 425.207031 842.867188 L 29.117188 745.019531 Z M 138.65625 301.597656 " clip-rule="nonzero"/></clipPath><clipPath id="5d05c48db6"><path d="M 138.65625 301.597656 L 534.75 399.449219 L 425.207031 842.867188 L 29.117188 745.019531 Z M 138.65625 301.597656 " clip-rule="nonzero"/></clipPath><clipPath id="c7d4d7fd19"><path d="M 303 691 L 353 691 L 353 740 L 303 740 Z M 303 691 " clip-rule="nonzero"/></clipPath><clipPath id="f4b959c347"><path d="M 138.65625 301.597656 L 534.75 399.449219 L 425.207031 842.867188 L 29.117188 745.019531 Z M 138.65625 301.597656 " clip-rule="nonzero"/></clipPath><clipPath id="138ce2857b"><path d="M 138.65625 301.597656 L 534.75 399.449219 L 425.207031 842.867188 L 29.117188 745.019531 Z M 138.65625 301.597656 " clip-rule="nonzero"/></clipPath><clipPath id="d50ddf18b8"><path d="M 138.65625 301.597656 L 534.75 399.449219 L 425.207031 842.867188 L 29.117188 745.019531 Z M 138.65625 301.597656 " clip-rule="nonzero"/></clipPath><clipPath id="5424ea821b"><path d="M 336 359 L 386 359 L 386 408 L 336 408 Z M 336 359 " clip-rule="nonzero"/></clipPath><clipPath id="ec97fb51a6"><path d="M 138.65625 301.597656 L 534.75 399.449219 L 425.207031 842.867188 L 29.117188 745.019531 Z M 138.65625 301.597656 " clip-rule="nonzero"/></clipPath><clipPath id="d0d70699a2"><path d="M 138.65625 301.597656 L 534.75 399.449219 L 425.207031 842.867188 L 29.117188 745.019531 Z M 138.65625 301.597656 " clip-rule="nonzero"/></clipPath><clipPath id="ea57de6855"><path d="M 138.65625 301.597656 L 534.75 399.449219 L 425.207031 842.867188 L 29.117188 745.019531 Z M 138.65625 301.597656 " clip-rule="nonzero"/></clipPath><clipPath id="fb025fc190"><path d="M 132 428 L 181 428 L 181 477 L 132 477 Z M 132 428 " clip-rule="nonzero"/></clipPath><clipPath id="af406ebd00"><path d="M 138.65625 301.597656 L 534.75 399.449219 L 425.207031 842.867188 L 29.117188 745.019531 Z M 138.65625 301.597656 " clip-rule="nonzero"/></clipPath><clipPath id="f714b6ca79"><path d="M 138.65625 301.597656 L 534.75 399.449219 L 425.207031 842.867188 L 29.117188 745.019531 Z M 138.65625 301.597656 " clip-rule="nonzero"/></clipPath><clipPath id="06bea51e65"><path d="M 138.65625 301.597656 L 534.75 399.449219 L 425.207031 842.867188 L 29.117188 745.019531 Z M 138.65625 301.597656 " clip-rule="nonzero"/></clipPath><clipPath id="974cfe80a8"><path d="M 502 450 L 690 450 L 690 728 L 502 728 Z M 502 450 " clip-rule="nonzero"/></clipPath><clipPath id="970c598018"><path d="M 515.835938 311.910156 L 911.929688 409.761719 L 802.386719 853.179688 L 406.292969 755.332031 Z M 515.835938 311.910156 " clip-rule="nonzero"/></clipPath><clipPath id="7e7e0e0675"><path d="M 515.835938 311.910156 L 911.929688 409.761719 L 802.386719 853.179688 L 406.292969 755.332031 Z M 515.835938 311.910156 " clip-rule="nonzero"/></clipPath><clipPath id="f23b612057"><path d="M 515.835938 311.910156 L 911.929688 409.761719 L 802.386719 853.179688 L 406.292969 755.332031 Z M 515.835938 311.910156 " clip-rule="nonzero"/></clipPath><clipPath id="dbc015de59"><path d="M 687 587 L 783 587 L 783 670 L 687 670 Z M 687 587 " clip-rule="nonzero"/></clipPath><clipPath id="bbda67e243"><path d="M 515.835938 311.910156 L 911.929688 409.761719 L 802.386719 853.179688 L 406.292969 755.332031 Z M 515.835938 311.910156 " clip-rule="nonzero"/></clipPath><clipPath id="f9000131d5"><path d="M 515.835938 311.910156 L 911.929688 409.761719 L 802.386719 853.179688 L 406.292969 755.332031 Z M 515.835938 311.910156 " clip-rule="nonzero"/></clipPath><clipPath id="ccd4c11f00"><path d="M 515.835938 311.910156 L 911.929688 409.761719 L 802.386719 853.179688 L 406.292969 755.332031 Z M 515.835938 311.910156 " clip-rule="nonzero"/></clipPath><clipPath id="5ab9d1b895"><path d="M 695 484 L 803 484 L 803 590 L 695 590 Z M 695 484 " clip-rule="nonzero"/></clipPath><clipPath id="df5d45e518"><path d="M 515.835938 311.910156 L 911.929688 409.761719 L 802.386719 853.179688 L 406.292969 755.332031 Z M 515.835938 311.910156 " clip-rule="nonzero"/></clipPath><clipPath id="6084ea359e"><path d="M 515.835938 311.910156 L 911.929688 409.761719 L 802.386719 853.179688 L 406.292969 755.332031 Z M 515.835938 311.910156 " clip-rule="nonzero"/></clipPath><clipPath id="6f03fd921c"><path d="M 515.835938 311.910156 L 911.929688 409.761719 L 802.386719 853.179688 L 406.292969 755.332031 Z M 515.835938 311.910156 " clip-rule="nonzero"/></clipPath><clipPath id="07ef93f282"><path d="M 622 656 L 703 656 L 703 693 L 622 693 Z M 622 656 " clip-rule="nonzero"/></clipPath><clipPath id="81cb1bc007"><path d="M 515.835938 311.910156 L 911.929688 409.761719 L 802.386719 853.179688 L 406.292969 755.332031 Z M 515.835938 311.910156 " clip-rule="nonzero"/></clipPath><clipPath id="c571562004"><path d="M 515.835938 311.910156 L 911.929688 409.761719 L 802.386719 853.179688 L 406.292969 755.332031 Z M 515.835938 311.910156 " clip-rule="nonzero"/></clipPath><clipPath id="769a3fd658"><path d="M 515.835938 311.910156 L 911.929688 409.761719 L 802.386719 853.179688 L 406.292969 755.332031 Z M 515.835938 311.910156 " clip-rule="nonzero"/></clipPath><clipPath id="15e709baab"><path d="M 582 507 L 664 507 L 664 601 L 582 601 Z M 582 507 " clip-rule="nonzero"/></clipPath><clipPath id="80323d9f6a"><path d="M 515.835938 311.910156 L 911.929688 409.761719 L 802.386719 853.179688 L 406.292969 755.332031 Z M 515.835938 311.910156 " clip-rule="nonzero"/></clipPath><clipPath id="0eb6ec2ffc"><path d="M 515.835938 311.910156 L 911.929688 409.761719 L 802.386719 853.179688 L 406.292969 755.332031 Z M 515.835938 311.910156 " clip-rule="nonzero"/></clipPath><clipPath id="39aa0bef03"><path d="M 515.835938 311.910156 L 911.929688 409.761719 L 802.386719 853.179688 L 406.292969 755.332031 Z M 515.835938 311.910156 " clip-rule="nonzero"/></clipPath><clipPath id="72c36fa398"><path d="M 562 588 L 597 588 L 597 624 L 562 624 Z M 562 588 " clip-rule="nonzero"/></clipPath><clipPath id="02f87db4f0"><path d="M 515.835938 311.910156 L 911.929688 409.761719 L 802.386719 853.179688 L 406.292969 755.332031 Z M 515.835938 311.910156 " clip-rule="nonzero"/></clipPath><clipPath id="22466effda"><path d="M 515.835938 311.910156 L 911.929688 409.761719 L 802.386719 853.179688 L 406.292969 755.332031 Z M 515.835938 311.910156 " clip-rule="nonzero"/></clipPath><clipPath id="c2bd4765e6"><path d="M 515.835938 311.910156 L 911.929688 409.761719 L 802.386719 853.179688 L 406.292969 755.332031 Z M 515.835938 311.910156 " clip-rule="nonzero"/></clipPath><clipPath id="3be4d78bae"><path d="M 536 530 L 584 530 L 584 544 L 536 544 Z M 536 530 " clip-rule="nonzero"/></clipPath><clipPath id="eb9bd3cc2d"><path d="M 515.835938 311.910156 L 911.929688 409.761719 L 802.386719 853.179688 L 406.292969 755.332031 Z M 515.835938 311.910156 " clip-rule="nonzero"/></clipPath><clipPath id="2019a79efd"><path d="M 515.835938 311.910156 L 911.929688 409.761719 L 802.386719 853.179688 L 406.292969 755.332031 Z M 515.835938 311.910156 " clip-rule="nonzero"/></clipPath><clipPath id="b089559c5a"><path d="M 515.835938 311.910156 L 911.929688 409.761719 L 802.386719 853.179688 L 406.292969 755.332031 Z M 515.835938 311.910156 " clip-rule="nonzero"/></clipPath><clipPath id="34a1bfb9f8"><path d="M 602 462 L 617 462 L 617 509 L 602 509 Z M 602 462 " clip-rule="nonzero"/></clipPath><clipPath id="46724af1f6"><path d="M 515.835938 311.910156 L 911.929688 409.761719 L 802.386719 853.179688 L 406.292969 755.332031 Z M 515.835938 311.910156 " clip-rule="nonzero"/></clipPath><clipPath id="f84ebd397e"><path d="M 515.835938 311.910156 L 911.929688 409.761719 L 802.386719 853.179688 L 406.292969 755.332031 Z M 515.835938 311.910156 " clip-rule="nonzero"/></clipPath><clipPath id="1368e91a36"><path d="M 515.835938 311.910156 L 911.929688 409.761719 L 802.386719 853.179688 L 406.292969 755.332031 Z M 515.835938 311.910156 " clip-rule="nonzero"/></clipPath><clipPath id="1072206a0a"><path d="M 588 381 L 697 381 L 697 521 L 588 521 Z M 588 381 " clip-rule="nonzero"/></clipPath><clipPath id="1550c274e6"><path d="M 515.835938 311.910156 L 911.929688 409.761719 L 802.386719 853.179688 L 406.292969 755.332031 Z M 515.835938 311.910156 " clip-rule="nonzero"/></clipPath><clipPath id="2c1f2cedaf"><path d="M 515.835938 311.910156 L 911.929688 409.761719 L 802.386719 853.179688 L 406.292969 755.332031 Z M 515.835938 311.910156 " clip-rule="nonzero"/></clipPath><clipPath id="d480ad7b75"><path d="M 515.835938 311.910156 L 911.929688 409.761719 L 802.386719 853.179688 L 406.292969 755.332031 Z M 515.835938 311.910156 " clip-rule="nonzero"/></clipPath><clipPath id="89d2932e9b"><path d="M 635 392 L 730 392 L 730 486 L 635 486 Z M 635 392 " clip-rule="nonzero"/></clipPath><clipPath id="d56c5de087"><path d="M 515.835938 311.910156 L 911.929688 409.761719 L 802.386719 853.179688 L 406.292969 755.332031 Z M 515.835938 311.910156 " clip-rule="nonzero"/></clipPath><clipPath id="7df1bfb3b0"><path d="M 515.835938 311.910156 L 911.929688 409.761719 L 802.386719 853.179688 L 406.292969 755.332031 Z M 515.835938 311.910156 " clip-rule="nonzero"/></clipPath><clipPath id="cd2a5508b5"><path d="M 515.835938 311.910156 L 911.929688 409.761719 L 802.386719 853.179688 L 406.292969 755.332031 Z M 515.835938 311.910156 " clip-rule="nonzero"/></clipPath><clipPath id="b6e4f2bd54"><path d="M 602 439 L 683 439 L 683 475 L 602 475 Z M 602 439 " clip-rule="nonzero"/></clipPath><clipPath id="417f39af6c"><path d="M 515.835938 311.910156 L 911.929688 409.761719 L 802.386719 853.179688 L 406.292969 755.332031 Z M 515.835938 311.910156 " clip-rule="nonzero"/></clipPath><clipPath id="fa5a516673"><path d="M 515.835938 311.910156 L 911.929688 409.761719 L 802.386719 853.179688 L 406.292969 755.332031 Z M 515.835938 311.910156 " clip-rule="nonzero"/></clipPath><clipPath id="a4f1b5bb46"><path d="M 515.835938 311.910156 L 911.929688 409.761719 L 802.386719 853.179688 L 406.292969 755.332031 Z M 515.835938 311.910156 " clip-rule="nonzero"/></clipPath><clipPath id="e614891e09"><path d="M 661 519 L 723 519 L 723 578 L 661 578 Z M 661 519 " clip-rule="nonzero"/></clipPath><clipPath id="b24a0a3829"><path d="M 515.835938 311.910156 L 911.929688 409.761719 L 802.386719 853.179688 L 406.292969 755.332031 Z M 515.835938 311.910156 " clip-rule="nonzero"/></clipPath><clipPath id="ef876a5d2b"><path d="M 515.835938 311.910156 L 911.929688 409.761719 L 802.386719 853.179688 L 406.292969 755.332031 Z M 515.835938 311.910156 " clip-rule="nonzero"/></clipPath><clipPath id="3ea7eb2462"><path d="M 515.835938 311.910156 L 911.929688 409.761719 L 802.386719 853.179688 L 406.292969 755.332031 Z M 515.835938 311.910156 " clip-rule="nonzero"/></clipPath><clipPath id="8fc7aaf03b"><path d="M 688 496 L 743 496 L 743 613 L 688 613 Z M 688 496 " clip-rule="nonzero"/></clipPath><clipPath id="8fdc72dfad"><path d="M 515.835938 311.910156 L 911.929688 409.761719 L 802.386719 853.179688 L 406.292969 755.332031 Z M 515.835938 311.910156 " clip-rule="nonzero"/></clipPath><clipPath id="967e72f82b"><path d="M 515.835938 311.910156 L 911.929688 409.761719 L 802.386719 853.179688 L 406.292969 755.332031 Z M 515.835938 311.910156 " clip-rule="nonzero"/></clipPath><clipPath id="cd3a33f5e4"><path d="M 515.835938 311.910156 L 911.929688 409.761719 L 802.386719 853.179688 L 406.292969 755.332031 Z M 515.835938 311.910156 " clip-rule="nonzero"/></clipPath><clipPath id="f297fdc99a"><path d="M 575 633 L 656 633 L 656 670 L 575 670 Z M 575 633 " clip-rule="nonzero"/></clipPath><clipPath id="48f7ac4cd5"><path d="M 515.835938 311.910156 L 911.929688 409.761719 L 802.386719 853.179688 L 406.292969 755.332031 Z M 515.835938 311.910156 " clip-rule="nonzero"/></clipPath><clipPath id="94ba256931"><path d="M 515.835938 311.910156 L 911.929688 409.761719 L 802.386719 853.179688 L 406.292969 755.332031 Z M 515.835938 311.910156 " clip-rule="nonzero"/></clipPath><clipPath id="0a92123a1f"><path d="M 515.835938 311.910156 L 911.929688 409.761719 L 802.386719 853.179688 L 406.292969 755.332031 Z M 515.835938 311.910156 " clip-rule="nonzero"/></clipPath><clipPath id="2d1fa3daf9"><path d="M 569 610 L 650 610 L 650 647 L 569 647 Z M 569 610 " clip-rule="nonzero"/></clipPath><clipPath id="2cbe88f381"><path d="M 515.835938 311.910156 L 911.929688 409.761719 L 802.386719 853.179688 L 406.292969 755.332031 Z M 515.835938 311.910156 " clip-rule="nonzero"/></clipPath><clipPath id="d0eaadec50"><path d="M 515.835938 311.910156 L 911.929688 409.761719 L 802.386719 853.179688 L 406.292969 755.332031 Z M 515.835938 311.910156 " clip-rule="nonzero"/></clipPath><clipPath id="ca8911c8b7"><path d="M 515.835938 311.910156 L 911.929688 409.761719 L 802.386719 853.179688 L 406.292969 755.332031 Z M 515.835938 311.910156 " clip-rule="nonzero"/></clipPath><clipPath id="a7223bb37b"><path d="M 711 536 L 746 536 L 746 618 L 711 618 Z M 711 536 " clip-rule="nonzero"/></clipPath><clipPath id="7826e2a7f4"><path d="M 515.835938 311.910156 L 911.929688 409.761719 L 802.386719 853.179688 L 406.292969 755.332031 Z M 515.835938 311.910156 " clip-rule="nonzero"/></clipPath><clipPath id="6520bbcb5b"><path d="M 515.835938 311.910156 L 911.929688 409.761719 L 802.386719 853.179688 L 406.292969 755.332031 Z M 515.835938 311.910156 " clip-rule="nonzero"/></clipPath><clipPath id="63e2de2ecc"><path d="M 515.835938 311.910156 L 911.929688 409.761719 L 802.386719 853.179688 L 406.292969 755.332031 Z M 515.835938 311.910156 " clip-rule="nonzero"/></clipPath><clipPath id="535473a3c6"><path d="M 609 461 L 690 461 L 690 498 L 609 498 Z M 609 461 " clip-rule="nonzero"/></clipPath><clipPath id="2ce00516b6"><path d="M 515.835938 311.910156 L 911.929688 409.761719 L 802.386719 853.179688 L 406.292969 755.332031 Z M 515.835938 311.910156 " clip-rule="nonzero"/></clipPath><clipPath id="f3260f540d"><path d="M 515.835938 311.910156 L 911.929688 409.761719 L 802.386719 853.179688 L 406.292969 755.332031 Z M 515.835938 311.910156 " clip-rule="nonzero"/></clipPath><clipPath id="d98d3b43d6"><path d="M 515.835938 311.910156 L 911.929688 409.761719 L 802.386719 853.179688 L 406.292969 755.332031 Z M 515.835938 311.910156 " clip-rule="nonzero"/></clipPath><clipPath id="e796480c89"><path d="M 436 599 L 531 599 L 531 694 L 436 694 Z M 436 599 " clip-rule="nonzero"/></clipPath><clipPath id="2fd4396b5b"><path d="M 515.835938 311.910156 L 911.929688 409.761719 L 802.386719 853.179688 L 406.292969 755.332031 Z M 515.835938 311.910156 " clip-rule="nonzero"/></clipPath><clipPath id="7c256f0048"><path d="M 515.835938 311.910156 L 911.929688 409.761719 L 802.386719 853.179688 L 406.292969 755.332031 Z M 515.835938 311.910156 " clip-rule="nonzero"/></clipPath><clipPath id="acedf8e76a"><path d="M 515.835938 311.910156 L 911.929688 409.761719 L 802.386719 853.179688 L 406.292969 755.332031 Z M 515.835938 311.910156 " clip-rule="nonzero"/></clipPath><clipPath id="9beab3eb9a"><path d="M 416 679 L 512 679 L 512 773 L 416 773 Z M 416 679 " clip-rule="nonzero"/></clipPath><clipPath id="8361fe9c03"><path d="M 515.835938 311.910156 L 911.929688 409.761719 L 802.386719 853.179688 L 406.292969 755.332031 Z M 515.835938 311.910156 " clip-rule="nonzero"/></clipPath><clipPath id="a2707995e1"><path d="M 515.835938 311.910156 L 911.929688 409.761719 L 802.386719 853.179688 L 406.292969 755.332031 Z M 515.835938 311.910156 " clip-rule="nonzero"/></clipPath><clipPath id="128b73dd2f"><path d="M 515.835938 311.910156 L 911.929688 409.761719 L 802.386719 853.179688 L 406.292969 755.332031 Z M 515.835938 311.910156 " clip-rule="nonzero"/></clipPath><clipPath id="dab16d32e2"><path d="M 453 616 L 515 616 L 515 675 L 453 675 Z M 453 616 " clip-rule="nonzero"/></clipPath><clipPath id="feaa50b2f3"><path d="M 515.835938 311.910156 L 911.929688 409.761719 L 802.386719 853.179688 L 406.292969 755.332031 Z M 515.835938 311.910156 " clip-rule="nonzero"/></clipPath><clipPath id="43c250115d"><path d="M 515.835938 311.910156 L 911.929688 409.761719 L 802.386719 853.179688 L 406.292969 755.332031 Z M 515.835938 311.910156 " clip-rule="nonzero"/></clipPath><clipPath id="e8843c2b07"><path d="M 515.835938 311.910156 L 911.929688 409.761719 L 802.386719 853.179688 L 406.292969 755.332031 Z M 515.835938 311.910156 " clip-rule="nonzero"/></clipPath><clipPath id="5ef75d0dfa"><path d="M 773 427 L 869 427 L 869 522 L 773 522 Z M 773 427 " clip-rule="nonzero"/></clipPath><clipPath id="9f72c853f9"><path d="M 515.835938 311.910156 L 911.929688 409.761719 L 802.386719 853.179688 L 406.292969 755.332031 Z M 515.835938 311.910156 " clip-rule="nonzero"/></clipPath><clipPath id="592186c5fb"><path d="M 515.835938 311.910156 L 911.929688 409.761719 L 802.386719 853.179688 L 406.292969 755.332031 Z M 515.835938 311.910156 " clip-rule="nonzero"/></clipPath><clipPath id="b8206363e1"><path d="M 515.835938 311.910156 L 911.929688 409.761719 L 802.386719 853.179688 L 406.292969 755.332031 Z M 515.835938 311.910156 " clip-rule="nonzero"/></clipPath><clipPath id="bc53d3911b"><path d="M 791 444 L 852 444 L 852 503 L 791 503 Z M 791 444 " clip-rule="nonzero"/></clipPath><clipPath id="3a965b3b60"><path d="M 515.835938 311.910156 L 911.929688 409.761719 L 802.386719 853.179688 L 406.292969 755.332031 Z M 515.835938 311.910156 " clip-rule="nonzero"/></clipPath><clipPath id="31efceb41f"><path d="M 515.835938 311.910156 L 911.929688 409.761719 L 802.386719 853.179688 L 406.292969 755.332031 Z M 515.835938 311.910156 " clip-rule="nonzero"/></clipPath><clipPath id="54a0076ac4"><path d="M 515.835938 311.910156 L 911.929688 409.761719 L 802.386719 853.179688 L 406.292969 755.332031 Z M 515.835938 311.910156 " clip-rule="nonzero"/></clipPath><clipPath id="08ab303798"><path d="M 833 518 L 882 518 L 882 567 L 833 567 Z M 833 518 " clip-rule="nonzero"/></clipPath><clipPath id="fc96d7876e"><path d="M 515.835938 311.910156 L 911.929688 409.761719 L 802.386719 853.179688 L 406.292969 755.332031 Z M 515.835938 311.910156 " clip-rule="nonzero"/></clipPath><clipPath id="2fe4b19115"><path d="M 515.835938 311.910156 L 911.929688 409.761719 L 802.386719 853.179688 L 406.292969 755.332031 Z M 515.835938 311.910156 " clip-rule="nonzero"/></clipPath><clipPath id="fdc3bd0b16"><path d="M 515.835938 311.910156 L 911.929688 409.761719 L 802.386719 853.179688 L 406.292969 755.332031 Z M 515.835938 311.910156 " clip-rule="nonzero"/></clipPath><clipPath id="ffcef9927d"><path d="M 509 701 L 558 701 L 558 751 L 509 751 Z M 509 701 " clip-rule="nonzero"/></clipPath><clipPath id="82065a74eb"><path d="M 515.835938 311.910156 L 911.929688 409.761719 L 802.386719 853.179688 L 406.292969 755.332031 Z M 515.835938 311.910156 " clip-rule="nonzero"/></clipPath><clipPath id="c0cbb36fa0"><path d="M 515.835938 311.910156 L 911.929688 409.761719 L 802.386719 853.179688 L 406.292969 755.332031 Z M 515.835938 311.910156 " clip-rule="nonzero"/></clipPath><clipPath id="9053376aab"><path d="M 515.835938 311.910156 L 911.929688 409.761719 L 802.386719 853.179688 L 406.292969 755.332031 Z M 515.835938 311.910156 " clip-rule="nonzero"/></clipPath><clipPath id="63cb03d560"><path d="M 680 701 L 730 701 L 730 751 L 680 751 Z M 680 701 " clip-rule="nonzero"/></clipPath><clipPath id="11d18ee573"><path d="M 515.835938 311.910156 L 911.929688 409.761719 L 802.386719 853.179688 L 406.292969 755.332031 Z M 515.835938 311.910156 " clip-rule="nonzero"/></clipPath><clipPath id="35b752b7b7"><path d="M 515.835938 311.910156 L 911.929688 409.761719 L 802.386719 853.179688 L 406.292969 755.332031 Z M 515.835938 311.910156 " clip-rule="nonzero"/></clipPath><clipPath id="bd895a89a4"><path d="M 515.835938 311.910156 L 911.929688 409.761719 L 802.386719 853.179688 L 406.292969 755.332031 Z M 515.835938 311.910156 " clip-rule="nonzero"/></clipPath><clipPath id="126c7769b7"><path d="M 713 369 L 763 369 L 763 418 L 713 418 Z M 713 369 " clip-rule="nonzero"/></clipPath><clipPath id="75f09ffcb4"><path d="M 515.835938 311.910156 L 911.929688 409.761719 L 802.386719 853.179688 L 406.292969 755.332031 Z M 515.835938 311.910156 " clip-rule="nonzero"/></clipPath><clipPath id="785cfed9ee"><path d="M 515.835938 311.910156 L 911.929688 409.761719 L 802.386719 853.179688 L 406.292969 755.332031 Z M 515.835938 311.910156 " clip-rule="nonzero"/></clipPath><clipPath id="c28acc3f29"><path d="M 515.835938 311.910156 L 911.929688 409.761719 L 802.386719 853.179688 L 406.292969 755.332031 Z M 515.835938 311.910156 " clip-rule="nonzero"/></clipPath><clipPath id="64ebea7e88"><path d="M 509 438 L 558 438 L 558 487 L 509 487 Z M 509 438 " clip-rule="nonzero"/></clipPath><clipPath id="c7dba0d037"><path d="M 515.835938 311.910156 L 911.929688 409.761719 L 802.386719 853.179688 L 406.292969 755.332031 Z M 515.835938 311.910156 " clip-rule="nonzero"/></clipPath><clipPath id="aa4117d53e"><path d="M 515.835938 311.910156 L 911.929688 409.761719 L 802.386719 853.179688 L 406.292969 755.332031 Z M 515.835938 311.910156 " clip-rule="nonzero"/></clipPath><clipPath id="3d942aadd7"><path d="M 515.835938 311.910156 L 911.929688 409.761719 L 802.386719 853.179688 L 406.292969 755.332031 Z M 515.835938 311.910156 " clip-rule="nonzero"/></clipPath><clipPath id="d32ff7a2d5"><path d="M 507 59 L 690 59 L 690 344 L 507 344 Z M 507 59 " clip-rule="nonzero"/></clipPath><clipPath id="4b90c64513"><path d="M 651.460938 484.742188 L 266.617188 349.246094 L 418.304688 -81.578125 L 803.148438 53.914062 Z M 651.460938 484.742188 " clip-rule="nonzero"/></clipPath><clipPath id="24bdb9cb8d"><path d="M 651.460938 484.742188 L 266.617188 349.246094 L 418.304688 -81.578125 L 803.148438 53.914062 Z M 651.460938 484.742188 " clip-rule="nonzero"/></clipPath><clipPath id="92463e7793"><path d="M 651.460938 484.742188 L 266.617188 349.246094 L 418.304688 -81.578125 L 803.148438 53.914062 Z M 651.460938 484.742188 " clip-rule="nonzero"/></clipPath><clipPath id="942bbc491b"><path d="M 417 106 L 509 106 L 509 187 L 417 187 Z M 417 106 " clip-rule="nonzero"/></clipPath><clipPath id="f82ff6a245"><path d="M 651.460938 484.742188 L 266.617188 349.246094 L 418.304688 -81.578125 L 803.148438 53.914062 Z M 651.460938 484.742188 " clip-rule="nonzero"/></clipPath><clipPath id="ce6f167528"><path d="M 651.460938 484.742188 L 266.617188 349.246094 L 418.304688 -81.578125 L 803.148438 53.914062 Z M 651.460938 484.742188 " clip-rule="nonzero"/></clipPath><clipPath id="a612471d6a"><path d="M 651.460938 484.742188 L 266.617188 349.246094 L 418.304688 -81.578125 L 803.148438 53.914062 Z M 651.460938 484.742188 " clip-rule="nonzero"/></clipPath><clipPath id="ab124b9c1c"><path d="M 389 183 L 490 183 L 490 296 L 389 296 Z M 389 183 " clip-rule="nonzero"/></clipPath><clipPath id="74f88fc8ad"><path d="M 651.460938 484.742188 L 266.617188 349.246094 L 418.304688 -81.578125 L 803.148438 53.914062 Z M 651.460938 484.742188 " clip-rule="nonzero"/></clipPath><clipPath id="88c7ab642b"><path d="M 651.460938 484.742188 L 266.617188 349.246094 L 418.304688 -81.578125 L 803.148438 53.914062 Z M 651.460938 484.742188 " clip-rule="nonzero"/></clipPath><clipPath id="6c288fa951"><path d="M 651.460938 484.742188 L 266.617188 349.246094 L 418.304688 -81.578125 L 803.148438 53.914062 Z M 651.460938 484.742188 " clip-rule="nonzero"/></clipPath><clipPath id="da5269d809"><path d="M 498 91 L 581 91 L 581 124 L 498 124 Z M 498 91 " clip-rule="nonzero"/></clipPath><clipPath id="0036db932f"><path d="M 651.460938 484.742188 L 266.617188 349.246094 L 418.304688 -81.578125 L 803.148438 53.914062 Z M 651.460938 484.742188 " clip-rule="nonzero"/></clipPath><clipPath id="0f747ad3d8"><path d="M 651.460938 484.742188 L 266.617188 349.246094 L 418.304688 -81.578125 L 803.148438 53.914062 Z M 651.460938 484.742188 " clip-rule="nonzero"/></clipPath><clipPath id="d2cfd8ea2b"><path d="M 651.460938 484.742188 L 266.617188 349.246094 L 418.304688 -81.578125 L 803.148438 53.914062 Z M 651.460938 484.742188 " clip-rule="nonzero"/></clipPath><clipPath id="a4d91e61cd"><path d="M 524 184 L 608 184 L 608 281 L 524 281 Z M 524 184 " clip-rule="nonzero"/></clipPath><clipPath id="44d1657a7a"><path d="M 651.460938 484.742188 L 266.617188 349.246094 L 418.304688 -81.578125 L 803.148438 53.914062 Z M 651.460938 484.742188 " clip-rule="nonzero"/></clipPath><clipPath id="323f4b6ad9"><path d="M 651.460938 484.742188 L 266.617188 349.246094 L 418.304688 -81.578125 L 803.148438 53.914062 Z M 651.460938 484.742188 " clip-rule="nonzero"/></clipPath><clipPath id="a30c8fd5de"><path d="M 651.460938 484.742188 L 266.617188 349.246094 L 418.304688 -81.578125 L 803.148438 53.914062 Z M 651.460938 484.742188 " clip-rule="nonzero"/></clipPath><clipPath id="5767be9816"><path d="M 597 169 L 635 169 L 635 203 L 597 203 Z M 597 169 " clip-rule="nonzero"/></clipPath><clipPath id="a4bfd7df37"><path d="M 651.460938 484.742188 L 266.617188 349.246094 L 418.304688 -81.578125 L 803.148438 53.914062 Z M 651.460938 484.742188 " clip-rule="nonzero"/></clipPath><clipPath id="d45b0924ba"><path d="M 651.460938 484.742188 L 266.617188 349.246094 L 418.304688 -81.578125 L 803.148438 53.914062 Z M 651.460938 484.742188 " clip-rule="nonzero"/></clipPath><clipPath id="417b9921fd"><path d="M 651.460938 484.742188 L 266.617188 349.246094 L 418.304688 -81.578125 L 803.148438 53.914062 Z M 651.460938 484.742188 " clip-rule="nonzero"/></clipPath><clipPath id="a98ca6ede0"><path d="M 606 247 L 653 247 L 653 265 L 606 265 Z M 606 247 " clip-rule="nonzero"/></clipPath><clipPath id="a6210e502d"><path d="M 651.460938 484.742188 L 266.617188 349.246094 L 418.304688 -81.578125 L 803.148438 53.914062 Z M 651.460938 484.742188 " clip-rule="nonzero"/></clipPath><clipPath id="bad56ea3f2"><path d="M 651.460938 484.742188 L 266.617188 349.246094 L 418.304688 -81.578125 L 803.148438 53.914062 Z M 651.460938 484.742188 " clip-rule="nonzero"/></clipPath><clipPath id="f0dcdca4ac"><path d="M 651.460938 484.742188 L 266.617188 349.246094 L 418.304688 -81.578125 L 803.148438 53.914062 Z M 651.460938 484.742188 " clip-rule="nonzero"/></clipPath><clipPath id="84e157e727"><path d="M 569 279 L 581 279 L 581 327 L 569 327 Z M 569 279 " clip-rule="nonzero"/></clipPath><clipPath id="ff60b2e206"><path d="M 651.460938 484.742188 L 266.617188 349.246094 L 418.304688 -81.578125 L 803.148438 53.914062 Z M 651.460938 484.742188 " clip-rule="nonzero"/></clipPath><clipPath id="1b31bd7701"><path d="M 651.460938 484.742188 L 266.617188 349.246094 L 418.304688 -81.578125 L 803.148438 53.914062 Z M 651.460938 484.742188 " clip-rule="nonzero"/></clipPath><clipPath id="f2fec3f6d2"><path d="M 651.460938 484.742188 L 266.617188 349.246094 L 418.304688 -81.578125 L 803.148438 53.914062 Z M 651.460938 484.742188 " clip-rule="nonzero"/></clipPath><clipPath id="bd83be100e"><path d="M 488 263 L 589 263 L 589 406 L 488 406 Z M 488 263 " clip-rule="nonzero"/></clipPath><clipPath id="7b1741a4da"><path d="M 651.460938 484.742188 L 266.617188 349.246094 L 418.304688 -81.578125 L 803.148438 53.914062 Z M 651.460938 484.742188 " clip-rule="nonzero"/></clipPath><clipPath id="9f3fe5637c"><path d="M 651.460938 484.742188 L 266.617188 349.246094 L 418.304688 -81.578125 L 803.148438 53.914062 Z M 651.460938 484.742188 " clip-rule="nonzero"/></clipPath><clipPath id="02248a54c8"><path d="M 651.460938 484.742188 L 266.617188 349.246094 L 418.304688 -81.578125 L 803.148438 53.914062 Z M 651.460938 484.742188 " clip-rule="nonzero"/></clipPath><clipPath id="e3b549b2b4"><path d="M 452 294 L 544 294 L 544 390 L 452 390 Z M 452 294 " clip-rule="nonzero"/></clipPath><clipPath id="3fab1a4303"><path d="M 651.460938 484.742188 L 266.617188 349.246094 L 418.304688 -81.578125 L 803.148438 53.914062 Z M 651.460938 484.742188 " clip-rule="nonzero"/></clipPath><clipPath id="31169c62b7"><path d="M 651.460938 484.742188 L 266.617188 349.246094 L 418.304688 -81.578125 L 803.148438 53.914062 Z M 651.460938 484.742188 " clip-rule="nonzero"/></clipPath><clipPath id="f559f58342"><path d="M 651.460938 484.742188 L 266.617188 349.246094 L 418.304688 -81.578125 L 803.148438 53.914062 Z M 651.460938 484.742188 " clip-rule="nonzero"/></clipPath><clipPath id="c5cdd9a55c"><path d="M 497 309 L 580 309 L 580 343 L 497 343 Z M 497 309 " clip-rule="nonzero"/></clipPath><clipPath id="9f9454c30f"><path d="M 651.460938 484.742188 L 266.617188 349.246094 L 418.304688 -81.578125 L 803.148438 53.914062 Z M 651.460938 484.742188 " clip-rule="nonzero"/></clipPath><clipPath id="ba5e2fdacd"><path d="M 651.460938 484.742188 L 266.617188 349.246094 L 418.304688 -81.578125 L 803.148438 53.914062 Z M 651.460938 484.742188 " clip-rule="nonzero"/></clipPath><clipPath id="5b0fe63539"><path d="M 651.460938 484.742188 L 266.617188 349.246094 L 418.304688 -81.578125 L 803.148438 53.914062 Z M 651.460938 484.742188 " clip-rule="nonzero"/></clipPath><clipPath id="4571fa1fc1"><path d="M 471 200 L 527 200 L 527 264 L 471 264 Z M 471 200 " clip-rule="nonzero"/></clipPath><clipPath id="be85c67d91"><path d="M 651.460938 484.742188 L 266.617188 349.246094 L 418.304688 -81.578125 L 803.148438 53.914062 Z M 651.460938 484.742188 " clip-rule="nonzero"/></clipPath><clipPath id="b9105fe02c"><path d="M 651.460938 484.742188 L 266.617188 349.246094 L 418.304688 -81.578125 L 803.148438 53.914062 Z M 651.460938 484.742188 " clip-rule="nonzero"/></clipPath><clipPath id="f24c2ccc18"><path d="M 651.460938 484.742188 L 266.617188 349.246094 L 418.304688 -81.578125 L 803.148438 53.914062 Z M 651.460938 484.742188 " clip-rule="nonzero"/></clipPath><clipPath id="25e2d2a106"><path d="M 443 169 L 509 169 L 509 280 L 443 280 Z M 443 169 " clip-rule="nonzero"/></clipPath><clipPath id="05196fa189"><path d="M 651.460938 484.742188 L 266.617188 349.246094 L 418.304688 -81.578125 L 803.148438 53.914062 Z M 651.460938 484.742188 " clip-rule="nonzero"/></clipPath><clipPath id="295918a87b"><path d="M 651.460938 484.742188 L 266.617188 349.246094 L 418.304688 -81.578125 L 803.148438 53.914062 Z M 651.460938 484.742188 " clip-rule="nonzero"/></clipPath><clipPath id="fbea028a33"><path d="M 651.460938 484.742188 L 266.617188 349.246094 L 418.304688 -81.578125 L 803.148438 53.914062 Z M 651.460938 484.742188 " clip-rule="nonzero"/></clipPath><clipPath id="0adb4ef619"><path d="M 544 123 L 626 123 L 626 156 L 544 156 Z M 544 123 " clip-rule="nonzero"/></clipPath><clipPath id="bac9d73394"><path d="M 651.460938 484.742188 L 266.617188 349.246094 L 418.304688 -81.578125 L 803.148438 53.914062 Z M 651.460938 484.742188 " clip-rule="nonzero"/></clipPath><clipPath id="9edbcdd7a2"><path d="M 651.460938 484.742188 L 266.617188 349.246094 L 418.304688 -81.578125 L 803.148438 53.914062 Z M 651.460938 484.742188 " clip-rule="nonzero"/></clipPath><clipPath id="99a8acc319"><path d="M 651.460938 484.742188 L 266.617188 349.246094 L 418.304688 -81.578125 L 803.148438 53.914062 Z M 651.460938 484.742188 " clip-rule="nonzero"/></clipPath><clipPath id="c935a0b96b"><path d="M 548 146 L 631 146 L 631 179 L 548 179 Z M 548 146 " clip-rule="nonzero"/></clipPath><clipPath id="8a8fe53433"><path d="M 651.460938 484.742188 L 266.617188 349.246094 L 418.304688 -81.578125 L 803.148438 53.914062 Z M 651.460938 484.742188 " clip-rule="nonzero"/></clipPath><clipPath id="3d1ea05931"><path d="M 651.460938 484.742188 L 266.617188 349.246094 L 418.304688 -81.578125 L 803.148438 53.914062 Z M 651.460938 484.742188 " clip-rule="nonzero"/></clipPath><clipPath id="930ce172a5"><path d="M 651.460938 484.742188 L 266.617188 349.246094 L 418.304688 -81.578125 L 803.148438 53.914062 Z M 651.460938 484.742188 " clip-rule="nonzero"/></clipPath><clipPath id="c94325a655"><path d="M 448 161 L 486 161 L 486 241 L 448 241 Z M 448 161 " clip-rule="nonzero"/></clipPath><clipPath id="5e82fa2cd3"><path d="M 651.460938 484.742188 L 266.617188 349.246094 L 418.304688 -81.578125 L 803.148438 53.914062 Z M 651.460938 484.742188 " clip-rule="nonzero"/></clipPath><clipPath id="a92392fbae"><path d="M 651.460938 484.742188 L 266.617188 349.246094 L 418.304688 -81.578125 L 803.148438 53.914062 Z M 651.460938 484.742188 " clip-rule="nonzero"/></clipPath><clipPath id="8be2d79692"><path d="M 651.460938 484.742188 L 266.617188 349.246094 L 418.304688 -81.578125 L 803.148438 53.914062 Z M 651.460938 484.742188 " clip-rule="nonzero"/></clipPath><clipPath id="87249234b5"><path d="M 493 286 L 576 286 L 576 319 L 493 319 Z M 493 286 " clip-rule="nonzero"/></clipPath><clipPath id="9b66c4acce"><path d="M 651.460938 484.742188 L 266.617188 349.246094 L 418.304688 -81.578125 L 803.148438 53.914062 Z M 651.460938 484.742188 " clip-rule="nonzero"/></clipPath><clipPath id="eefdca7704"><path d="M 651.460938 484.742188 L 266.617188 349.246094 L 418.304688 -81.578125 L 803.148438 53.914062 Z M 651.460938 484.742188 " clip-rule="nonzero"/></clipPath><clipPath id="1f68714236"><path d="M 651.460938 484.742188 L 266.617188 349.246094 L 418.304688 -81.578125 L 803.148438 53.914062 Z M 651.460938 484.742188 " clip-rule="nonzero"/></clipPath><clipPath id="d13c58910e"><path d="M 669 107 L 762 107 L 762 203 L 669 203 Z M 669 107 " clip-rule="nonzero"/></clipPath><clipPath id="a958550d80"><path d="M 651.460938 484.742188 L 266.617188 349.246094 L 418.304688 -81.578125 L 803.148438 53.914062 Z M 651.460938 484.742188 " clip-rule="nonzero"/></clipPath><clipPath id="ca07ce0f47"><path d="M 651.460938 484.742188 L 266.617188 349.246094 L 418.304688 -81.578125 L 803.148438 53.914062 Z M 651.460938 484.742188 " clip-rule="nonzero"/></clipPath><clipPath id="047431c10a"><path d="M 651.460938 484.742188 L 266.617188 349.246094 L 418.304688 -81.578125 L 803.148438 53.914062 Z M 651.460938 484.742188 " clip-rule="nonzero"/></clipPath><clipPath id="ca3f154377"><path d="M 696 29 L 789 29 L 789 126 L 696 126 Z M 696 29 " clip-rule="nonzero"/></clipPath><clipPath id="40d1a1fb97"><path d="M 651.460938 484.742188 L 266.617188 349.246094 L 418.304688 -81.578125 L 803.148438 53.914062 Z M 651.460938 484.742188 " clip-rule="nonzero"/></clipPath><clipPath id="9c22e0acfc"><path d="M 651.460938 484.742188 L 266.617188 349.246094 L 418.304688 -81.578125 L 803.148438 53.914062 Z M 651.460938 484.742188 " clip-rule="nonzero"/></clipPath><clipPath id="9ca8c50549"><path d="M 651.460938 484.742188 L 266.617188 349.246094 L 418.304688 -81.578125 L 803.148438 53.914062 Z M 651.460938 484.742188 " clip-rule="nonzero"/></clipPath><clipPath id="c28242886d"><path d="M 687 123 L 743 123 L 743 188 L 687 188 Z M 687 123 " clip-rule="nonzero"/></clipPath><clipPath id="37a5580a19"><path d="M 651.460938 484.742188 L 266.617188 349.246094 L 418.304688 -81.578125 L 803.148438 53.914062 Z M 651.460938 484.742188 " clip-rule="nonzero"/></clipPath><clipPath id="866bc4545f"><path d="M 651.460938 484.742188 L 266.617188 349.246094 L 418.304688 -81.578125 L 803.148438 53.914062 Z M 651.460938 484.742188 " clip-rule="nonzero"/></clipPath><clipPath id="60c3ab211e"><path d="M 651.460938 484.742188 L 266.617188 349.246094 L 418.304688 -81.578125 L 803.148438 53.914062 Z M 651.460938 484.742188 " clip-rule="nonzero"/></clipPath><clipPath id="b1ede6df64"><path d="M 317 245 L 410 245 L 410 342 L 317 342 Z M 317 245 " clip-rule="nonzero"/></clipPath><clipPath id="94456ec20c"><path d="M 651.460938 484.742188 L 266.617188 349.246094 L 418.304688 -81.578125 L 803.148438 53.914062 Z M 651.460938 484.742188 " clip-rule="nonzero"/></clipPath><clipPath id="e1fe4017ce"><path d="M 651.460938 484.742188 L 266.617188 349.246094 L 418.304688 -81.578125 L 803.148438 53.914062 Z M 651.460938 484.742188 " clip-rule="nonzero"/></clipPath><clipPath id="e06c9e6d41"><path d="M 651.460938 484.742188 L 266.617188 349.246094 L 418.304688 -81.578125 L 803.148438 53.914062 Z M 651.460938 484.742188 " clip-rule="nonzero"/></clipPath><clipPath id="b1180a3048"><path d="M 335 262 L 391 262 L 391 327 L 335 327 Z M 335 262 " clip-rule="nonzero"/></clipPath><clipPath id="e6e2895106"><path d="M 651.460938 484.742188 L 266.617188 349.246094 L 418.304688 -81.578125 L 803.148438 53.914062 Z M 651.460938 484.742188 " clip-rule="nonzero"/></clipPath><clipPath id="8249efee14"><path d="M 651.460938 484.742188 L 266.617188 349.246094 L 418.304688 -81.578125 L 803.148438 53.914062 Z M 651.460938 484.742188 " clip-rule="nonzero"/></clipPath><clipPath id="a22c05031c"><path d="M 651.460938 484.742188 L 266.617188 349.246094 L 418.304688 -81.578125 L 803.148438 53.914062 Z M 651.460938 484.742188 " clip-rule="nonzero"/></clipPath><clipPath id="6b04bae330"><path d="M 308 199 L 356 199 L 356 249 L 308 249 Z M 308 199 " clip-rule="nonzero"/></clipPath><clipPath id="98ea407ead"><path d="M 651.460938 484.742188 L 266.617188 349.246094 L 418.304688 -81.578125 L 803.148438 53.914062 Z M 651.460938 484.742188 " clip-rule="nonzero"/></clipPath><clipPath id="5fc385ff17"><path d="M 651.460938 484.742188 L 266.617188 349.246094 L 418.304688 -81.578125 L 803.148438 53.914062 Z M 651.460938 484.742188 " clip-rule="nonzero"/></clipPath><clipPath id="cf6474004e"><path d="M 651.460938 484.742188 L 266.617188 349.246094 L 418.304688 -81.578125 L 803.148438 53.914062 Z M 651.460938 484.742188 " clip-rule="nonzero"/></clipPath><clipPath id="87b0ab9702"><path d="M 652 44 L 700 44 L 700 94 L 652 94 Z M 652 44 " clip-rule="nonzero"/></clipPath><clipPath id="edaba5a35d"><path d="M 651.460938 484.742188 L 266.617188 349.246094 L 418.304688 -81.578125 L 803.148438 53.914062 Z M 651.460938 484.742188 " clip-rule="nonzero"/></clipPath><clipPath id="2dbe477d87"><path d="M 651.460938 484.742188 L 266.617188 349.246094 L 418.304688 -81.578125 L 803.148438 53.914062 Z M 651.460938 484.742188 " clip-rule="nonzero"/></clipPath><clipPath id="5c8891886b"><path d="M 651.460938 484.742188 L 266.617188 349.246094 L 418.304688 -81.578125 L 803.148438 53.914062 Z M 651.460938 484.742188 " clip-rule="nonzero"/></clipPath><clipPath id="3e42e7a231"><path d="M 480 28 L 529 28 L 529 78 L 480 78 Z M 480 28 " clip-rule="nonzero"/></clipPath><clipPath id="3da039fa68"><path d="M 651.460938 484.742188 L 266.617188 349.246094 L 418.304688 -81.578125 L 803.148438 53.914062 Z M 651.460938 484.742188 " clip-rule="nonzero"/></clipPath><clipPath id="e727c1f2a6"><path d="M 651.460938 484.742188 L 266.617188 349.246094 L 418.304688 -81.578125 L 803.148438 53.914062 Z M 651.460938 484.742188 " clip-rule="nonzero"/></clipPath><clipPath id="21983e6055"><path d="M 651.460938 484.742188 L 266.617188 349.246094 L 418.304688 -81.578125 L 803.148438 53.914062 Z M 651.460938 484.742188 " clip-rule="nonzero"/></clipPath><clipPath id="9103d34bf1"><path d="M 416 355 L 464 355 L 464 406 L 416 406 Z M 416 355 " clip-rule="nonzero"/></clipPath><clipPath id="db9fc00128"><path d="M 651.460938 484.742188 L 266.617188 349.246094 L 418.304688 -81.578125 L 803.148438 53.914062 Z M 651.460938 484.742188 " clip-rule="nonzero"/></clipPath><clipPath id="a7645d0d5c"><path d="M 651.460938 484.742188 L 266.617188 349.246094 L 418.304688 -81.578125 L 803.148438 53.914062 Z M 651.460938 484.742188 " clip-rule="nonzero"/></clipPath><clipPath id="990394aa47"><path d="M 651.460938 484.742188 L 266.617188 349.246094 L 418.304688 -81.578125 L 803.148438 53.914062 Z M 651.460938 484.742188 " clip-rule="nonzero"/></clipPath><clipPath id="e661413dff"><path d="M 623 309 L 671 309 L 671 360 L 623 360 Z M 623 309 " clip-rule="nonzero"/></clipPath><clipPath id="0bc7ab152b"><path d="M 651.460938 484.742188 L 266.617188 349.246094 L 418.304688 -81.578125 L 803.148438 53.914062 Z M 651.460938 484.742188 " clip-rule="nonzero"/></clipPath><clipPath id="b67f451718"><path d="M 651.460938 484.742188 L 266.617188 349.246094 L 418.304688 -81.578125 L 803.148438 53.914062 Z M 651.460938 484.742188 " clip-rule="nonzero"/></clipPath><clipPath id="74933279af"><path d="M 651.460938 484.742188 L 266.617188 349.246094 L 418.304688 -81.578125 L 803.148438 53.914062 Z M 651.460938 484.742188 " clip-rule="nonzero"/></clipPath></defs><g clip-path="url(#73eeeb4455)"><g clip-path="url(#643a7c2c1f)"><g clip-path="url(#f2e914ef6e)"><g clip-path="url(#c65ae5f7ca)"><path fill="#212121" d="M 311.53125 601.84375 L 266.324219 590.679688 L 279.355469 635.769531 L 246.296875 670.230469 L 259.796875 716.847656 L 211.933594 705.023438 L 172.195312 567.425781 L 125.132812 555.796875 L 191.820312 486.457031 L 178.324219 439.839844 L 225.832031 451.574219 L 225.503906 452.90625 L 180.296875 441.738281 L 193.328125 486.828125 L 127.765625 555.035156 L 173.320312 566.292969 L 212.972656 703.867188 L 257.820312 714.949219 L 244.789062 669.855469 L 277.847656 635.398438 L 264.351562 588.777344 L 311.859375 600.515625 Z M 311.53125 601.84375 " fill-opacity="1" fill-rule="nonzero"/></g></g></g></g><g clip-path="url(#cc83b73f71)"><g clip-path="url(#292b4fe4f5)"><g clip-path="url(#5676f56d53)"><g clip-path="url(#0075e732c8)"><path fill="#212121" d="M 325.421875 646.492188 L 370.980469 657.746094 L 403.507812 623.910156 L 390.679688 579.527344 L 358.152344 613.363281 L 312.59375 602.109375 Z M 371.09375 659.1875 L 324.382812 647.648438 C 319.824219 631.839844 315.265625 616.035156 310.683594 600.320312 L 357.75 611.945312 L 391.402344 576.976562 C 395.960938 592.78125 400.523438 608.585938 405.105469 624.304688 C 393.953125 635.945312 382.6875 647.652344 371.449219 659.273438 Z M 371.09375 659.1875 " fill-opacity="1" fill-rule="nonzero"/></g></g></g></g><g clip-path="url(#f256a0a808)"><g clip-path="url(#67a0432a4c)"><g clip-path="url(#22a05afb12)"><g clip-path="url(#ed2b649d62)"><path fill="#212121" d="M 318.453125 474.457031 L 411.433594 497.425781 C 415.96875 512.941406 420.394531 528.527344 424.929688 544.042969 L 390.769531 579.546875 L 377.269531 532.929688 L 331.355469 521.585938 L 331.683594 520.257812 L 378.394531 531.796875 L 391.425781 576.886719 L 423.445312 543.582031 L 410.304688 498.558594 L 318.125 475.785156 Z M 318.453125 474.457031 " fill-opacity="1" fill-rule="nonzero"/></g></g></g></g><g clip-path="url(#25467786dd)"><g clip-path="url(#6a1b75fdab)"><g clip-path="url(#a23bd7703a)"><g clip-path="url(#2350d395fc)"><path fill="#212121" d="M 245.675781 669.324219 L 291.675781 680.6875 L 324.449219 646.628906 L 325.445312 647.53125 L 292.058594 682.191406 L 245.347656 670.652344 Z M 245.675781 669.324219 " fill-opacity="1" fill-rule="nonzero"/></g></g></g></g><g clip-path="url(#4b798c0b85)"><g clip-path="url(#a49aa8f1c3)"><g clip-path="url(#1377996fb8)"><g clip-path="url(#c5bb320133)"><path fill="#212121" d="M 265.171875 590.394531 L 218.464844 578.855469 C 214.015625 563.359375 209.5 547.753906 204.964844 532.234375 C 216.203125 520.617188 227.378906 508.886719 238.617188 497.265625 L 286.480469 509.089844 L 252.828125 544.058594 L 266.324219 590.679688 Z M 219.589844 577.722656 L 264.351562 588.777344 L 251.410156 543.710938 L 283.9375 509.871094 L 239.175781 498.816406 L 206.648438 532.652344 Z M 219.589844 577.722656 " fill-opacity="1" fill-rule="nonzero"/></g></g></g></g><g clip-path="url(#c8337244a4)"><g clip-path="url(#aaf6d99bf5)"><g clip-path="url(#dba1e9dea9)"><g clip-path="url(#93600f8a25)"><path fill="#212121" d="M 219.503906 578.828125 L 186.46875 613.199219 L 185.46875 612.292969 L 218.527344 577.835938 Z M 219.503906 578.828125 " fill-opacity="1" fill-rule="nonzero"/></g></g></g></g><g clip-path="url(#e614fea9f5)"><g clip-path="url(#b6ea146fc8)"><g clip-path="url(#c0ac6322ff)"><g clip-path="url(#77c40b3c63)"><path fill="#212121" d="M 159.648438 520.382812 L 206.003906 531.832031 L 205.675781 533.164062 L 159.320312 521.710938 Z M 159.648438 520.382812 " fill-opacity="1" fill-rule="nonzero"/></g></g></g></g><g clip-path="url(#b4d434e77c)"><g clip-path="url(#25930ee7b0)"><g clip-path="url(#e46bc08f65)"><g clip-path="url(#c3a3999e0d)"><path fill="#212121" d="M 238.179688 498.285156 L 224.96875 452.398438 L 226.273438 452.0625 L 239.507812 497.859375 Z M 238.179688 498.285156 " fill-opacity="1" fill-rule="nonzero"/></g></g></g></g><g clip-path="url(#397567603e)"><g clip-path="url(#1c7be4c896)"><g clip-path="url(#b390cc605f)"><g clip-path="url(#f4470d4638)"><path fill="#212121" d="M 224.96875 452.398438 L 211.648438 406.199219 C 223.042969 394.335938 234.4375 382.46875 245.8125 370.695312 L 259.308594 417.3125 L 305.667969 428.765625 C 310.203125 444.28125 314.628906 459.867188 319.164062 475.382812 L 285.863281 510.066406 L 284.863281 509.160156 L 317.660156 475.011719 L 304.628906 429.921875 L 258.273438 418.46875 L 245.242188 373.378906 L 213.15625 406.570312 L 226.273438 452.0625 Z M 224.96875 452.398438 " fill-opacity="1" fill-rule="nonzero"/></g></g></g></g><g clip-path="url(#685f25f8f7)"><g clip-path="url(#2bb5658cff)"><g clip-path="url(#79e3e23918)"><g clip-path="url(#ce0f352ad3)"><path fill="#212121" d="M 258.179688 417.316406 L 291.570312 382.65625 L 338.636719 394.285156 C 343.171875 409.800781 347.597656 425.386719 352.132812 440.902344 L 318.832031 475.585938 L 317.835938 474.679688 L 350.539062 440.507812 L 337.507812 395.417969 L 291.953125 384.164062 L 259.15625 418.3125 Z M 258.179688 417.316406 " fill-opacity="1" fill-rule="nonzero"/></g></g></g></g><g clip-path="url(#b6535049e8)"><g clip-path="url(#0c3073218e)"><g clip-path="url(#83674f31b2)"><g clip-path="url(#352306520c)"><path fill="#212121" d="M 225.832031 451.574219 L 271.742188 462.917969 L 304.535156 428.769531 L 305.515625 429.761719 L 272.125 464.421875 L 225.503906 452.90625 Z M 225.832031 451.574219 " fill-opacity="1" fill-rule="nonzero"/></g></g></g></g><g clip-path="url(#d2f91bb49f)"><g clip-path="url(#1d2389ee42)"><g clip-path="url(#a104f390ba)"><g clip-path="url(#44e9a8bf64)"><path fill="#212121" d="M 344.566406 567.476562 L 297.855469 555.9375 L 284.535156 509.738281 L 285.863281 509.3125 L 298.980469 554.804688 L 344.894531 566.144531 Z M 344.566406 567.476562 " fill-opacity="1" fill-rule="nonzero"/></g></g></g></g><g clip-path="url(#d092735703)"><g clip-path="url(#7894b7fd19)"><g clip-path="url(#df22ad6d43)"><g clip-path="url(#038449fe11)"><path fill="#212121" d="M 311.148438 600.714844 L 343.941406 566.570312 L 330.710938 520.769531 L 364.101562 486.109375 L 365.101562 487.015625 L 332.21875 521.140625 L 345.539062 566.964844 L 312.125 601.710938 Z M 311.148438 600.714844 " fill-opacity="1" fill-rule="nonzero"/></g></g></g></g><g clip-path="url(#cbfa989357)"><g clip-path="url(#743d9f4fc6)"><g clip-path="url(#23a270b618)"><g clip-path="url(#de90f04e72)"><path fill="#212121" d="M 278.472656 636.304688 L 232.46875 624.941406 L 199.675781 659.089844 L 198.699219 658.09375 L 232.089844 623.433594 L 278.800781 634.972656 Z M 278.472656 636.304688 " fill-opacity="1" fill-rule="nonzero"/></g></g></g></g><g clip-path="url(#d625cdae79)"><g clip-path="url(#2fe94acb53)"><g clip-path="url(#9c47df542e)"><g clip-path="url(#32630960b6)"><path fill="#212121" d="M 271.8125 613.394531 L 225.898438 602.050781 L 193.128906 636.109375 L 192.128906 635.207031 L 225.429688 600.523438 L 272.140625 612.0625 Z M 271.8125 613.394531 " fill-opacity="1" fill-rule="nonzero"/></g></g></g></g><g clip-path="url(#05d17e7888)"><g clip-path="url(#283a889c7b)"><g clip-path="url(#c7d97982ee)"><g clip-path="url(#d41969fba8)"><path fill="#212121" d="M 334.371094 606.453125 L 367.164062 572.304688 L 354.023438 526.902344 L 355.351562 526.480469 L 368.671875 572.679688 L 335.347656 607.449219 Z M 334.371094 606.453125 " fill-opacity="1" fill-rule="nonzero"/></g></g></g></g><g clip-path="url(#4886a47759)"><g clip-path="url(#fdc0ffbd15)"><g clip-path="url(#7a4002f091)"><g clip-path="url(#4337fe9b9d)"><path fill="#212121" d="M 232.402344 474.464844 L 278.316406 485.804688 L 311.195312 451.679688 L 312.085938 452.652344 L 278.785156 487.332031 L 232.074219 475.792969 Z M 232.402344 474.464844 " fill-opacity="1" fill-rule="nonzero"/></g></g></g></g><g clip-path="url(#c69b528949)"><g clip-path="url(#2dc9bcfc9f)"><g clip-path="url(#94b3d2abba)"><g clip-path="url(#bd4ebd78df)"><path fill="#212121" d="M 107.230469 635.496094 L 120.167969 680.191406 L 152.191406 646.886719 L 139.136719 601.882812 L 93.578125 590.628906 L 61.558594 623.933594 L 107.117188 635.1875 Z M 119.222656 681.742188 L 106.101562 636.253906 L 58.949219 624.605469 C 70.34375 612.742188 81.738281 600.875 93.109375 589.101562 L 140.175781 600.726562 C 144.710938 616.246094 149.136719 631.832031 153.675781 647.347656 L 119.511719 682.851562 Z M 119.222656 681.742188 " fill-opacity="1" fill-rule="nonzero"/></g></g></g></g><g clip-path="url(#47dd45a530)"><g clip-path="url(#80de6c4057)"><g clip-path="url(#66fcf269a9)"><g clip-path="url(#dd2bf83139)"><path fill="#212121" d="M 86.074219 716.179688 L 73.132812 671.488281 L 41.222656 704.726562 L 54.253906 749.816406 L 99.8125 761.070312 L 131.832031 727.765625 L 86.273438 716.511719 Z M 74.171875 669.957031 L 87.289062 715.445312 L 134.355469 727.074219 C 122.960938 738.9375 111.566406 750.800781 100.191406 762.578125 L 53.128906 750.949219 C 48.679688 735.453125 44.164062 719.847656 39.628906 704.332031 C 51.023438 692.464844 62.417969 680.601562 73.792969 668.828125 Z M 74.171875 669.957031 " fill-opacity="1" fill-rule="nonzero"/></g></g></g></g><g clip-path="url(#ff7f828b4d)"><g clip-path="url(#027bf26f90)"><g clip-path="url(#a14491d3f8)"><g clip-path="url(#ffc12c5e93)"><path fill="#212121" d="M 76.992188 606.386719 L 123.703125 617.925781 L 137 664.210938 L 135.695312 664.546875 L 122.574219 619.058594 L 76.664062 607.714844 Z M 76.992188 606.386719 " fill-opacity="1" fill-rule="nonzero"/></g></g></g></g><g clip-path="url(#e945e5c905)"><g clip-path="url(#b23533b079)"><g clip-path="url(#6a9afed017)"><g clip-path="url(#e24bf435cd)"><path fill="#212121" d="M 444.578125 463.363281 L 457.519531 508.058594 L 489.519531 474.84375 L 476.488281 429.75 L 430.929688 418.496094 L 398.910156 451.800781 L 444.46875 463.054688 Z M 456.570312 509.613281 L 443.453125 464.121094 L 396.386719 452.496094 C 407.78125 440.628906 419.175781 428.765625 430.550781 416.992188 L 477.613281 428.617188 C 482.152344 444.136719 486.578125 459.71875 491.113281 475.238281 C 479.71875 487.101562 468.324219 498.964844 456.949219 510.742188 Z M 456.570312 509.613281 " fill-opacity="1" fill-rule="nonzero"/></g></g></g></g><g clip-path="url(#1435146ba0)"><g clip-path="url(#1341d75d5a)"><g clip-path="url(#3441e64d01)"><g clip-path="url(#6e906246ef)"><path fill="#212121" d="M 414.34375 434.253906 L 461.050781 445.792969 L 474.371094 491.992188 L 473.046875 492.414062 L 459.925781 446.925781 L 414.011719 435.582031 Z M 414.34375 434.253906 " fill-opacity="1" fill-rule="nonzero"/></g></g></g></g><g clip-path="url(#23e8a08710)"><g clip-path="url(#421f440200)"><g clip-path="url(#c2b534c68d)"><g clip-path="url(#0e278dc96d)"><path fill="#212121" d="M 502.21875 521.265625 L 458.167969 510.382812 L 470.730469 553.945312 Z M 457.34375 508.769531 L 504.765625 520.480469 L 470.070312 556.609375 L 456.191406 508.484375 Z M 457.34375 508.769531 " fill-opacity="1" fill-rule="nonzero"/></g></g></g></g><g clip-path="url(#d9e8b9c3e4)"><g clip-path="url(#a7c50dc7c8)"><g clip-path="url(#403168bc31)"><g clip-path="url(#5d05c48db6)"><path fill="#212121" d="M 179.253906 739.480469 L 131.832031 727.765625 L 166.523438 691.640625 L 180.402344 739.765625 Z M 134.355469 727.074219 L 178.40625 737.957031 L 165.847656 694.390625 Z M 134.355469 727.074219 " fill-opacity="1" fill-rule="nonzero"/></g></g></g></g><g clip-path="url(#c7d4d7fd19)"><g clip-path="url(#f4b959c347)"><g clip-path="url(#138ce2857b)"><g clip-path="url(#d50ddf18b8)"><path fill="#212121" d="M 351.265625 739.445312 L 303.757812 727.707031 L 338.453125 691.582031 L 352.332031 739.707031 Z M 306.390625 726.949219 L 350.445312 737.832031 L 337.882812 694.265625 Z M 306.390625 726.949219 " fill-opacity="1" fill-rule="nonzero"/></g></g></g></g><g clip-path="url(#5424ea821b)"><g clip-path="url(#ec97fb51a6)"><g clip-path="url(#d0d70699a2)"><g clip-path="url(#ea57de6855)"><path fill="#212121" d="M 384.21875 406.957031 L 336.800781 395.242188 L 371.492188 359.117188 L 385.371094 407.242188 Z M 339.433594 394.480469 L 383.394531 405.34375 L 370.835938 361.777344 Z M 339.433594 394.480469 " fill-opacity="1" fill-rule="nonzero"/></g></g></g></g><g clip-path="url(#fb025fc190)"><g clip-path="url(#af406ebd00)"><g clip-path="url(#f714b6ca79)"><g clip-path="url(#06bea51e65)"><path fill="#212121" d="M 177.996094 441.167969 L 134.03125 430.308594 L 146.59375 473.871094 Z M 133.207031 428.691406 L 180.628906 440.40625 C 169.101562 452.425781 157.460938 464.511719 145.933594 476.53125 C 141.332031 460.527344 136.660156 444.414062 132.054688 428.410156 Z M 133.207031 428.691406 " fill-opacity="1" fill-rule="nonzero"/></g></g></g></g><g clip-path="url(#974cfe80a8)"><g clip-path="url(#970c598018)"><g clip-path="url(#7e7e0e0675)"><g clip-path="url(#f23b612057)"><path fill="#212121" d="M 688.707031 612.15625 L 643.503906 600.992188 L 656.535156 646.082031 L 623.476562 680.542969 L 636.972656 727.160156 L 589.113281 715.335938 L 549.375 577.738281 L 502.308594 566.109375 L 569 496.769531 L 555.5 450.152344 L 603.007812 461.886719 L 602.679688 463.21875 L 557.476562 452.050781 L 570.507812 497.140625 L 504.941406 565.347656 L 550.5 576.605469 L 590.148438 714.179688 L 635 725.261719 L 621.96875 680.167969 L 655.027344 645.710938 L 641.527344 599.089844 L 689.035156 610.828125 Z M 688.707031 612.15625 " fill-opacity="1" fill-rule="nonzero"/></g></g></g></g><g clip-path="url(#dbc015de59)"><g clip-path="url(#bbda67e243)"><g clip-path="url(#f9000131d5)"><g clip-path="url(#ccd4c11f00)"><path fill="#212121" d="M 702.601562 656.804688 L 748.15625 668.058594 L 780.6875 634.222656 L 767.859375 589.839844 L 735.328125 623.675781 L 689.769531 612.421875 Z M 748.273438 669.5 L 701.5625 657.960938 C 697.003906 642.152344 692.445312 626.347656 687.863281 610.632812 L 734.925781 622.257812 L 768.582031 587.289062 C 773.140625 603.09375 777.699219 618.898438 782.28125 634.617188 C 771.128906 646.257812 759.867188 657.964844 748.628906 669.585938 Z M 748.273438 669.5 " fill-opacity="1" fill-rule="nonzero"/></g></g></g></g><g clip-path="url(#5ab9d1b895)"><g clip-path="url(#df5d45e518)"><g clip-path="url(#6084ea359e)"><g clip-path="url(#6f03fd921c)"><path fill="#212121" d="M 695.632812 484.769531 L 788.609375 507.738281 C 793.144531 523.253906 797.574219 538.839844 802.109375 554.355469 L 767.945312 589.859375 L 754.449219 543.242188 L 708.535156 531.898438 L 708.863281 530.570312 L 755.574219 542.109375 L 768.605469 587.199219 L 800.625 553.894531 L 787.484375 508.871094 L 695.304688 486.097656 Z M 695.632812 484.769531 " fill-opacity="1" fill-rule="nonzero"/></g></g></g></g><g clip-path="url(#07ef93f282)"><g clip-path="url(#81cb1bc007)"><g clip-path="url(#c571562004)"><g clip-path="url(#769a3fd658)"><path fill="#212121" d="M 622.851562 679.636719 L 668.855469 691 L 701.625 656.941406 L 702.625 657.84375 L 669.234375 692.503906 L 622.523438 680.964844 Z M 622.851562 679.636719 " fill-opacity="1" fill-rule="nonzero"/></g></g></g></g><g clip-path="url(#15e709baab)"><g clip-path="url(#80323d9f6a)"><g clip-path="url(#0eb6ec2ffc)"><g clip-path="url(#39aa0bef03)"><path fill="#212121" d="M 642.351562 600.707031 L 595.640625 589.167969 C 591.195312 573.671875 586.679688 558.066406 582.140625 542.546875 C 593.382812 530.929688 604.554688 519.199219 615.796875 507.578125 L 663.660156 519.402344 L 630.003906 554.371094 L 643.503906 600.992188 Z M 596.769531 588.035156 L 641.527344 599.089844 L 628.585938 554.023438 L 661.117188 520.183594 L 616.355469 509.128906 L 583.828125 542.964844 Z M 596.769531 588.035156 " fill-opacity="1" fill-rule="nonzero"/></g></g></g></g><g clip-path="url(#72c36fa398)"><g clip-path="url(#02f87db4f0)"><g clip-path="url(#22466effda)"><g clip-path="url(#c2bd4765e6)"><path fill="#212121" d="M 596.683594 589.140625 L 563.644531 623.511719 L 562.648438 622.605469 L 595.703125 588.148438 Z M 596.683594 589.140625 " fill-opacity="1" fill-rule="nonzero"/></g></g></g></g><g clip-path="url(#3be4d78bae)"><g clip-path="url(#eb9bd3cc2d)"><g clip-path="url(#2019a79efd)"><g clip-path="url(#b089559c5a)"><path fill="#212121" d="M 536.828125 530.695312 L 583.183594 542.144531 L 582.855469 543.476562 L 536.496094 532.023438 Z M 536.828125 530.695312 " fill-opacity="1" fill-rule="nonzero"/></g></g></g></g><g clip-path="url(#34a1bfb9f8)"><g clip-path="url(#46724af1f6)"><g clip-path="url(#f84ebd397e)"><g clip-path="url(#1368e91a36)"><path fill="#212121" d="M 615.355469 508.597656 L 602.148438 462.710938 L 603.453125 462.375 L 616.683594 508.171875 Z M 615.355469 508.597656 " fill-opacity="1" fill-rule="nonzero"/></g></g></g></g><g clip-path="url(#1072206a0a)"><g clip-path="url(#1550c274e6)"><g clip-path="url(#2c1f2cedaf)"><g clip-path="url(#d480ad7b75)"><path fill="#212121" d="M 602.148438 462.710938 L 588.828125 416.511719 C 600.222656 404.648438 611.617188 392.78125 622.988281 381.007812 L 636.488281 427.625 L 682.84375 439.078125 C 687.382812 454.59375 691.808594 470.179688 696.34375 485.699219 L 663.042969 520.378906 L 662.042969 519.472656 L 694.835938 485.324219 L 681.808594 440.234375 L 635.449219 428.78125 L 622.421875 383.691406 L 590.335938 416.882812 L 603.453125 462.375 Z M 602.148438 462.710938 " fill-opacity="1" fill-rule="nonzero"/></g></g></g></g><g clip-path="url(#89d2932e9b)"><g clip-path="url(#d56c5de087)"><g clip-path="url(#7df1bfb3b0)"><g clip-path="url(#cd2a5508b5)"><path fill="#212121" d="M 635.359375 427.628906 L 668.75 392.96875 L 715.8125 404.597656 C 720.351562 420.113281 724.777344 435.699219 729.3125 451.214844 L 696.011719 485.898438 L 695.011719 484.992188 L 727.71875 450.824219 L 714.6875 405.730469 L 669.128906 394.476562 L 636.335938 428.625 Z M 635.359375 427.628906 " fill-opacity="1" fill-rule="nonzero"/></g></g></g></g><g clip-path="url(#b6e4f2bd54)"><g clip-path="url(#417f39af6c)"><g clip-path="url(#fa5a516673)"><g clip-path="url(#a4f1b5bb46)"><path fill="#212121" d="M 603.007812 461.886719 L 648.921875 473.230469 L 681.714844 439.082031 L 682.691406 440.074219 L 649.300781 474.734375 L 602.679688 463.21875 Z M 603.007812 461.886719 " fill-opacity="1" fill-rule="nonzero"/></g></g></g></g><g clip-path="url(#e614891e09)"><g clip-path="url(#b24a0a3829)"><g clip-path="url(#ef876a5d2b)"><g clip-path="url(#3ea7eb2462)"><path fill="#212121" d="M 721.742188 577.789062 L 675.035156 566.25 L 661.710938 520.050781 L 663.039062 519.625 L 676.160156 565.117188 L 722.074219 576.457031 Z M 721.742188 577.789062 " fill-opacity="1" fill-rule="nonzero"/></g></g></g></g><g clip-path="url(#8fc7aaf03b)"><g clip-path="url(#8fdc72dfad)"><g clip-path="url(#967e72f82b)"><g clip-path="url(#cd3a33f5e4)"><path fill="#212121" d="M 688.328125 611.03125 L 721.121094 576.882812 L 707.890625 531.082031 L 741.28125 496.421875 L 742.277344 497.328125 L 709.398438 531.453125 L 722.71875 577.277344 L 689.304688 612.023438 Z M 688.328125 611.03125 " fill-opacity="1" fill-rule="nonzero"/></g></g></g></g><g clip-path="url(#f297fdc99a)"><g clip-path="url(#48f7ac4cd5)"><g clip-path="url(#94ba256931)"><g clip-path="url(#0a92123a1f)"><path fill="#212121" d="M 655.648438 646.617188 L 609.648438 635.253906 L 576.855469 669.402344 L 575.878906 668.40625 L 609.269531 633.746094 L 655.976562 645.285156 Z M 655.648438 646.617188 " fill-opacity="1" fill-rule="nonzero"/></g></g></g></g><g clip-path="url(#2d1fa3daf9)"><g clip-path="url(#2cbe88f381)"><g clip-path="url(#d0eaadec50)"><g clip-path="url(#ca8911c8b7)"><path fill="#212121" d="M 648.988281 623.707031 L 603.078125 612.363281 L 570.304688 646.421875 L 569.308594 645.519531 L 602.609375 610.835938 L 649.316406 622.375 Z M 648.988281 623.707031 " fill-opacity="1" fill-rule="nonzero"/></g></g></g></g><g clip-path="url(#a7223bb37b)"><g clip-path="url(#7826e2a7f4)"><g clip-path="url(#6520bbcb5b)"><g clip-path="url(#63e2de2ecc)"><path fill="#212121" d="M 711.550781 616.765625 L 744.34375 582.617188 L 731.203125 537.214844 L 732.53125 536.792969 L 745.851562 582.992188 L 712.527344 617.761719 Z M 711.550781 616.765625 " fill-opacity="1" fill-rule="nonzero"/></g></g></g></g><g clip-path="url(#535473a3c6)"><g clip-path="url(#2ce00516b6)"><g clip-path="url(#f3260f540d)"><g clip-path="url(#d98d3b43d6)"><path fill="#212121" d="M 609.582031 484.777344 L 655.492188 496.117188 L 688.375 461.992188 L 689.261719 462.964844 L 655.960938 497.644531 L 609.25 486.105469 Z M 609.582031 484.777344 " fill-opacity="1" fill-rule="nonzero"/></g></g></g></g><g clip-path="url(#e796480c89)"><g clip-path="url(#2fd4396b5b)"><g clip-path="url(#7c256f0048)"><g clip-path="url(#acedf8e76a)"><path fill="#212121" d="M 484.40625 645.808594 L 497.347656 690.503906 L 529.367188 657.199219 L 516.316406 612.195312 L 470.757812 600.941406 L 438.738281 634.246094 L 484.296875 645.5 Z M 496.398438 692.054688 L 483.28125 646.566406 L 436.125 634.917969 C 447.519531 623.054688 458.914062 611.191406 470.289062 599.414062 L 517.355469 611.042969 C 521.890625 626.558594 526.316406 642.144531 530.851562 657.660156 L 496.691406 693.164062 Z M 496.398438 692.054688 " fill-opacity="1" fill-rule="nonzero"/></g></g></g></g><g clip-path="url(#9beab3eb9a)"><g clip-path="url(#8361fe9c03)"><g clip-path="url(#a2707995e1)"><g clip-path="url(#128b73dd2f)"><path fill="#212121" d="M 463.253906 726.492188 L 450.3125 681.800781 L 418.402344 715.039062 L 431.433594 760.128906 L 476.992188 771.382812 L 509.011719 738.078125 L 463.453125 726.824219 Z M 451.347656 680.269531 L 464.46875 725.757812 L 511.535156 737.386719 C 500.136719 749.25 488.742188 761.113281 477.371094 772.890625 L 430.304688 761.261719 C 425.859375 745.765625 421.34375 730.160156 416.808594 714.644531 C 428.203125 702.78125 439.597656 690.914062 450.96875 679.140625 Z M 451.347656 680.269531 " fill-opacity="1" fill-rule="nonzero"/></g></g></g></g><g clip-path="url(#dab16d32e2)"><g clip-path="url(#feaa50b2f3)"><g clip-path="url(#43c250115d)"><g clip-path="url(#e8843c2b07)"><path fill="#212121" d="M 454.167969 616.699219 L 500.878906 628.238281 L 514.179688 674.523438 L 512.871094 674.859375 L 499.753906 629.371094 L 453.839844 618.027344 Z M 454.167969 616.699219 " fill-opacity="1" fill-rule="nonzero"/></g></g></g></g><g clip-path="url(#5ef75d0dfa)"><g clip-path="url(#9f72c853f9)"><g clip-path="url(#592186c5fb)"><g clip-path="url(#b8206363e1)"><path fill="#212121" d="M 821.757812 473.675781 L 834.699219 518.371094 L 866.695312 485.15625 L 853.667969 440.0625 L 808.109375 428.808594 L 776.089844 462.113281 L 821.644531 473.367188 Z M 833.75 519.925781 L 820.628906 474.433594 L 773.566406 462.808594 C 784.960938 450.941406 796.355469 439.078125 807.726562 427.304688 L 854.792969 438.929688 C 859.328125 454.449219 863.753906 470.03125 868.292969 485.550781 C 856.898438 497.414062 845.503906 509.277344 834.128906 521.054688 Z M 833.75 519.925781 " fill-opacity="1" fill-rule="nonzero"/></g></g></g></g><g clip-path="url(#bc53d3911b)"><g clip-path="url(#3a965b3b60)"><g clip-path="url(#31efceb41f)"><g clip-path="url(#54a0076ac4)"><path fill="#212121" d="M 791.519531 444.566406 L 838.230469 456.105469 L 851.550781 502.304688 L 850.222656 502.726562 L 837.105469 457.238281 L 791.191406 445.894531 Z M 791.519531 444.566406 " fill-opacity="1" fill-rule="nonzero"/></g></g></g></g><g clip-path="url(#08ab303798)"><g clip-path="url(#fc96d7876e)"><g clip-path="url(#2fe4b19115)"><g clip-path="url(#fdc3bd0b16)"><path fill="#212121" d="M 879.398438 531.578125 L 835.347656 520.695312 L 847.90625 564.257812 Z M 834.523438 519.082031 L 881.941406 530.792969 L 847.25 566.921875 L 833.371094 518.796875 Z M 834.523438 519.082031 " fill-opacity="1" fill-rule="nonzero"/></g></g></g></g><g clip-path="url(#ffcef9927d)"><g clip-path="url(#82065a74eb)"><g clip-path="url(#c0cbb36fa0)"><g clip-path="url(#9053376aab)"><path fill="#212121" d="M 556.429688 749.792969 L 509.011719 738.078125 L 543.703125 701.953125 L 557.582031 750.078125 Z M 511.535156 737.386719 L 555.585938 748.269531 L 543.023438 704.703125 Z M 511.535156 737.386719 " fill-opacity="1" fill-rule="nonzero"/></g></g></g></g><g clip-path="url(#63cb03d560)"><g clip-path="url(#11d18ee573)"><g clip-path="url(#35b752b7b7)"><g clip-path="url(#bd895a89a4)"><path fill="#212121" d="M 728.445312 749.757812 L 680.9375 738.019531 L 715.628906 701.894531 L 729.507812 750.019531 Z M 683.570312 737.261719 L 727.621094 748.144531 L 715.0625 704.578125 Z M 683.570312 737.261719 " fill-opacity="1" fill-rule="nonzero"/></g></g></g></g><g clip-path="url(#126c7769b7)"><g clip-path="url(#75f09ffcb4)"><g clip-path="url(#785cfed9ee)"><g clip-path="url(#c28acc3f29)"><path fill="#212121" d="M 761.398438 417.269531 L 713.980469 405.554688 L 748.671875 369.429688 L 762.550781 417.554688 Z M 716.613281 404.792969 L 760.574219 415.65625 L 748.015625 372.089844 Z M 716.613281 404.792969 " fill-opacity="1" fill-rule="nonzero"/></g></g></g></g><g clip-path="url(#64ebea7e88)"><g clip-path="url(#c7dba0d037)"><g clip-path="url(#aa4117d53e)"><g clip-path="url(#3d942aadd7)"><path fill="#212121" d="M 555.171875 451.480469 L 511.210938 440.621094 L 523.769531 484.183594 Z M 510.386719 439.003906 L 557.804688 450.71875 C 546.277344 462.738281 534.640625 474.824219 523.113281 486.84375 C 518.507812 470.839844 513.839844 454.726562 509.234375 438.722656 Z M 510.386719 439.003906 " fill-opacity="1" fill-rule="nonzero"/></g></g></g></g><g clip-path="url(#d32ff7a2d5)"><g clip-path="url(#4b90c64513)"><g clip-path="url(#24bdb9cb8d)"><g clip-path="url(#92463e7793)"><path fill="#212121" d="M 508.273438 169.257812 L 552.191406 184.722656 L 543.558594 138.585938 L 579.777344 107.46875 L 570.828125 59.765625 L 617.328125 76.140625 L 643.648438 216.921875 L 689.375 233.023438 L 616.324219 295.628906 L 625.277344 343.328125 L 579.117188 327.078125 L 579.574219 325.785156 L 623.492188 341.246094 L 614.863281 295.113281 L 686.683594 233.527344 L 642.417969 217.941406 L 616.1875 77.1875 L 572.609375 61.847656 L 581.242188 107.984375 L 545.023438 139.101562 L 553.976562 186.804688 L 507.816406 170.550781 Z M 508.273438 169.257812 " fill-opacity="1" fill-rule="nonzero"/></g></g></g></g><g clip-path="url(#942bbc491b)"><g clip-path="url(#f82ff6a245)"><g clip-path="url(#ce6f167528)"><g clip-path="url(#a612471d6a)"><path fill="#212121" d="M 498.738281 123.484375 L 454.472656 107.898438 L 418.839844 138.453125 L 427.339844 183.863281 L 462.972656 153.3125 L 507.238281 168.894531 Z M 454.5 106.457031 L 499.882812 122.433594 C 502.898438 138.605469 505.917969 154.777344 508.964844 170.859375 L 463.238281 154.761719 L 426.375 186.332031 C 423.359375 170.160156 420.339844 153.988281 417.292969 137.90625 C 429.511719 127.390625 441.847656 116.820312 454.152344 106.335938 Z M 454.5 106.457031 " fill-opacity="1" fill-rule="nonzero"/></g></g></g></g><g clip-path="url(#ab124b9c1c)"><g clip-path="url(#74f88fc8ad)"><g clip-path="url(#88c7ab642b)"><g clip-path="url(#6c288fa951)"><path fill="#212121" d="M 489.125 295.390625 L 398.789062 263.585938 C 395.765625 247.703125 392.859375 231.765625 389.835938 215.886719 L 427.253906 183.832031 L 436.207031 231.535156 L 480.816406 247.238281 L 480.363281 248.53125 L 434.976562 232.554688 L 426.34375 186.417969 L 391.269531 216.488281 L 400.019531 262.566406 L 489.582031 294.101562 Z M 489.125 295.390625 " fill-opacity="1" fill-rule="nonzero"/></g></g></g></g><g clip-path="url(#da5269d809)"><g clip-path="url(#0036db932f)"><g clip-path="url(#0f747ad3d8)"><g clip-path="url(#d2cfd8ea2b)"><path fill="#212121" d="M 580.3125 108.429688 L 535.617188 92.695312 L 499.722656 123.441406 L 498.8125 122.445312 L 535.382812 91.160156 L 580.765625 107.136719 Z M 580.3125 108.429688 " fill-opacity="1" fill-rule="nonzero"/></g></g></g></g><g clip-path="url(#a4d91e61cd)"><g clip-path="url(#44d1657a7a)"><g clip-path="url(#323f4b6ad9)"><g clip-path="url(#a30c8fd5de)"><path fill="#212121" d="M 553.3125 185.117188 L 598.695312 201.097656 C 601.632812 216.949219 604.625 232.914062 607.648438 248.796875 C 595.339844 259.28125 583.089844 269.882812 570.785156 280.367188 L 524.28125 263.996094 L 561.144531 232.425781 L 552.191406 184.722656 Z M 597.464844 202.117188 L 553.976562 186.804688 L 562.523438 232.910156 L 526.890625 263.460938 L 570.378906 278.773438 L 606.011719 248.222656 Z M 597.464844 202.117188 " fill-opacity="1" fill-rule="nonzero"/></g></g></g></g><g clip-path="url(#5767be9816)"><g clip-path="url(#a4bfd7df37)"><g clip-path="url(#d45b0924ba)"><g clip-path="url(#417b9921fd)"><path fill="#212121" d="M 597.65625 201.019531 L 633.847656 169.988281 L 634.753906 170.984375 L 598.535156 202.105469 Z M 597.65625 201.019531 " fill-opacity="1" fill-rule="nonzero"/></g></g></g></g><g clip-path="url(#a98ca6ede0)"><g clip-path="url(#a6210e502d)"><g clip-path="url(#bad56ea3f2)"><g clip-path="url(#f0dcdca4ac)"><path fill="#212121" d="M 651.613281 264.953125 L 606.574219 249.097656 L 607.027344 247.804688 L 652.066406 263.660156 Z M 651.613281 264.953125 " fill-opacity="1" fill-rule="nonzero"/></g></g></g></g><g clip-path="url(#84e157e727)"><g clip-path="url(#ff60b2e206)"><g clip-path="url(#1b31bd7701)"><g clip-path="url(#f2fec3f6d2)"><path fill="#212121" d="M 571.320312 279.394531 L 580.054688 326.339844 L 578.722656 326.550781 L 569.960938 279.691406 Z M 571.320312 279.394531 " fill-opacity="1" fill-rule="nonzero"/></g></g></g></g><g clip-path="url(#bd83be100e)"><g clip-path="url(#7b1741a4da)"><g clip-path="url(#9f3fe5637c)"><g clip-path="url(#02248a54c8)"><path fill="#212121" d="M 580.054688 326.339844 L 588.871094 373.605469 C 576.386719 384.320312 563.902344 395.03125 551.453125 405.660156 L 542.5 357.957031 L 497.460938 342.101562 C 494.4375 326.21875 491.53125 310.28125 488.507812 294.398438 L 524.988281 263.082031 L 525.898438 264.078125 L 489.972656 294.914062 L 498.605469 341.050781 L 543.644531 356.910156 L 552.273438 403.042969 L 587.40625 373.089844 L 578.722656 326.550781 Z M 580.054688 326.339844 " fill-opacity="1" fill-rule="nonzero"/></g></g></g></g><g clip-path="url(#e3b549b2b4)"><g clip-path="url(#3fab1a4303)"><g clip-path="url(#31169c62b7)"><g clip-path="url(#f559f58342)"><path fill="#212121" d="M 543.625 358.0625 L 507.054688 389.351562 L 461.328125 373.25 C 458.304688 357.367188 455.398438 341.429688 452.375 325.550781 L 488.855469 294.230469 L 489.765625 295.230469 L 453.925781 326.09375 L 462.554688 372.230469 L 506.820312 387.816406 L 542.746094 356.980469 Z M 543.625 358.0625 " fill-opacity="1" fill-rule="nonzero"/></g></g></g></g><g clip-path="url(#c5cdd9a55c)"><g clip-path="url(#9f9454c30f)"><g clip-path="url(#ba5e2fdacd)"><g clip-path="url(#5b0fe63539)"><path fill="#212121" d="M 579.117188 327.078125 L 534.511719 311.371094 L 498.585938 342.207031 L 497.707031 341.121094 L 534.277344 309.835938 L 579.574219 325.785156 Z M 579.117188 327.078125 " fill-opacity="1" fill-rule="nonzero"/></g></g></g></g><g clip-path="url(#4571fa1fc1)"><g clip-path="url(#be85c67d91)"><g clip-path="url(#b9105fe02c)"><g clip-path="url(#f24c2ccc18)"><path fill="#212121" d="M 472.082031 200.292969 L 517.464844 216.273438 L 526.28125 263.539062 L 524.917969 263.832031 L 516.238281 217.292969 L 471.628906 201.585938 Z M 472.082031 200.292969 " fill-opacity="1" fill-rule="nonzero"/></g></g></g></g><g clip-path="url(#25e2d2a106)"><g clip-path="url(#05196fa189)"><g clip-path="url(#295918a87b)"><g clip-path="url(#fbea028a33)"><path fill="#212121" d="M 508.539062 170.417969 L 472.613281 201.253906 L 481.378906 248.117188 L 444.8125 279.402344 L 443.902344 278.40625 L 479.914062 247.601562 L 471.066406 200.710938 L 507.664062 169.335938 Z M 508.539062 170.417969 " fill-opacity="1" fill-rule="nonzero"/></g></g></g></g><g clip-path="url(#0adb4ef619)"><g clip-path="url(#bac9d73394)"><g clip-path="url(#9edbcdd7a2)"><g clip-path="url(#99a8acc319)"><path fill="#212121" d="M 544.492188 138.140625 L 589.1875 153.875 L 625.113281 123.042969 L 625.988281 124.125 L 589.417969 155.410156 L 544.035156 139.433594 Z M 544.492188 138.140625 " fill-opacity="1" fill-rule="nonzero"/></g></g></g></g><g clip-path="url(#c935a0b96b)"><g clip-path="url(#8a8fe53433)"><g clip-path="url(#3d1ea05931)"><g clip-path="url(#930ce172a5)"><path fill="#212121" d="M 548.917969 161.585938 L 593.523438 177.292969 L 629.421875 146.542969 L 630.328125 147.539062 L 593.84375 178.855469 L 548.460938 162.878906 Z M 548.917969 161.585938 " fill-opacity="1" fill-rule="nonzero"/></g></g></g></g><g clip-path="url(#c94325a655)"><g clip-path="url(#5e82fa2cd3)"><g clip-path="url(#a92392fbae)"><g clip-path="url(#8be2d79692)"><path fill="#212121" d="M 485.976562 162.476562 L 450.050781 193.3125 L 458.765625 239.765625 L 457.402344 240.0625 L 448.589844 192.796875 L 485.101562 161.390625 Z M 485.976562 162.476562 " fill-opacity="1" fill-rule="nonzero"/></g></g></g></g><g clip-path="url(#87249234b5)"><g clip-path="url(#9b66c4acce)"><g clip-path="url(#eefdca7704)"><g clip-path="url(#1f68714236)"><path fill="#212121" d="M 574.78125 303.660156 L 530.171875 287.957031 L 494.160156 318.761719 L 493.367188 317.707031 L 529.851562 286.390625 L 575.234375 302.371094 Z M 574.78125 303.660156 " fill-opacity="1" fill-rule="nonzero"/></g></g></g></g><g clip-path="url(#d13c58910e)"><g clip-path="url(#a958550d80)"><g clip-path="url(#ca07ce0f47)"><g clip-path="url(#047431c10a)"><path fill="#212121" d="M 714.863281 155.414062 L 706.28125 109.683594 L 671.207031 139.753906 L 679.867188 185.804688 L 724.132812 201.386719 L 759.207031 171.320312 L 714.941406 155.734375 Z M 707.375 108.230469 L 716.058594 154.769531 L 761.871094 170.902344 C 749.386719 181.613281 736.90625 192.328125 724.453125 202.953125 L 678.722656 186.851562 C 675.699219 170.972656 672.792969 155.035156 669.773438 139.152344 L 707.191406 107.097656 Z M 707.375 108.230469 " fill-opacity="1" fill-rule="nonzero"/></g></g></g></g><g clip-path="url(#ca3f154377)"><g clip-path="url(#40d1a1fb97)"><g clip-path="url(#9c22e0acfc)"><g clip-path="url(#9ca8c50549)"><path fill="#212121" d="M 743.679688 77.140625 L 752.261719 122.871094 L 787.21875 92.855469 L 778.585938 46.722656 L 734.324219 31.136719 L 699.246094 61.207031 L 743.511719 76.789062 Z M 751.082031 124.296875 L 742.398438 77.753906 L 696.667969 61.65625 C 709.152344 50.941406 721.636719 40.226562 734.089844 29.601562 L 779.816406 45.703125 C 782.753906 61.554688 785.746094 77.519531 788.769531 93.402344 C 776.285156 104.117188 763.804688 114.828125 751.351562 125.457031 Z M 751.082031 124.296875 " fill-opacity="1" fill-rule="nonzero"/></g></g></g></g><g clip-path="url(#c28242886d)"><g clip-path="url(#37a5580a19)"><g clip-path="url(#866bc4545f)"><g clip-path="url(#60c3ab211e)"><path fill="#212121" d="M 742.160156 187.300781 L 696.773438 171.320312 L 687.992188 123.96875 L 689.320312 123.761719 L 698.003906 170.300781 L 742.613281 186.007812 Z M 742.160156 187.300781 " fill-opacity="1" fill-rule="nonzero"/></g></g></g></g><g clip-path="url(#b1ede6df64)"><g clip-path="url(#94456ec20c)"><g clip-path="url(#e1fe4017ce)"><g clip-path="url(#e06c9e6d41)"><path fill="#212121" d="M 362.519531 294.300781 L 353.9375 248.570312 L 318.890625 278.554688 L 327.523438 324.6875 L 371.789062 340.273438 L 406.863281 310.203125 L 362.601562 294.621094 Z M 355.03125 247.113281 L 363.714844 293.65625 L 409.441406 309.757812 C 396.957031 320.46875 384.476562 331.183594 372.023438 341.808594 L 326.292969 325.707031 C 323.269531 309.828125 320.363281 293.890625 317.34375 278.007812 C 329.824219 267.292969 342.308594 256.582031 354.761719 245.953125 Z M 355.03125 247.113281 " fill-opacity="1" fill-rule="nonzero"/></g></g></g></g><g clip-path="url(#b1180a3048)"><g clip-path="url(#e6e2895106)"><g clip-path="url(#8249efee14)"><g clip-path="url(#a22c05031c)"><path fill="#212121" d="M 389.816406 326.1875 L 344.433594 310.207031 L 335.617188 262.941406 L 336.980469 262.644531 L 345.660156 309.1875 L 390.269531 324.894531 Z M 389.816406 326.1875 " fill-opacity="1" fill-rule="nonzero"/></g></g></g></g><g clip-path="url(#6b04bae330)"><g clip-path="url(#98ea407ead)"><g clip-path="url(#5fc385ff17)"><g clip-path="url(#cf6474004e)"><path fill="#212121" d="M 310.714844 231.125 L 353.515625 246.195312 L 345.203125 201.625 Z M 354.179688 247.878906 L 308.105469 231.660156 L 346.113281 199.039062 L 355.300781 248.273438 Z M 354.179688 247.878906 " fill-opacity="1" fill-rule="nonzero"/></g></g></g></g><g clip-path="url(#87b0ab9702)"><g clip-path="url(#edaba5a35d)"><g clip-path="url(#2dbe477d87)"><g clip-path="url(#5c8891886b)"><path fill="#212121" d="M 653.175781 44.984375 L 699.246094 61.207031 L 661.242188 93.828125 L 652.054688 44.589844 Z M 696.667969 61.65625 L 653.871094 46.585938 L 662.179688 91.15625 Z M 696.667969 61.65625 " fill-opacity="1" fill-rule="nonzero"/></g></g></g></g><g clip-path="url(#3e42e7a231)"><g clip-path="url(#3da039fa68)"><g clip-path="url(#e727c1f2a6)"><g clip-path="url(#21983e6055)"><path fill="#212121" d="M 481.953125 28.476562 L 528.113281 44.726562 L 490.105469 77.347656 L 480.921875 28.113281 Z M 525.417969 45.230469 L 482.617188 30.164062 L 490.929688 74.734375 Z M 525.417969 45.230469 " fill-opacity="1" fill-rule="nonzero"/></g></g></g></g><g clip-path="url(#9103d34bf1)"><g clip-path="url(#db9fc00128)"><g clip-path="url(#a7645d0d5c)"><g clip-path="url(#990394aa47)"><path fill="#212121" d="M 417.171875 356.253906 L 463.246094 372.472656 L 425.238281 405.09375 L 416.054688 355.859375 Z M 460.550781 372.976562 L 417.835938 357.9375 L 426.148438 402.507812 Z M 460.550781 372.976562 " fill-opacity="1" fill-rule="nonzero"/></g></g></g></g><g clip-path="url(#e661413dff)"><g clip-path="url(#0bc7ab152b)"><g clip-path="url(#b67f451718)"><g clip-path="url(#74933279af)"><path fill="#212121" d="M 625.734375 342.035156 L 668.445312 357.074219 L 660.136719 312.503906 Z M 669.113281 358.761719 L 623.039062 342.539062 C 635.667969 331.683594 648.414062 320.773438 661.042969 309.917969 C 664.089844 326.292969 667.1875 342.78125 670.230469 359.15625 Z M 669.113281 358.761719 " fill-opacity="1" fill-rule="nonzero"/></g></g></g></g></svg>