<?xml version="1.0" standalone="no"?>
<!DOCTYPE svg PUBLIC "-//W3C//DTD SVG 20010904//EN"
 "http://www.w3.org/TR/2001/REC-SVG-20010904/DTD/svg10.dtd">
<svg version="1.0" xmlns="http://www.w3.org/2000/svg"
 width="540.000000pt" height="540.000000pt" viewBox="0 0 540.000000 540.000000"
 preserveAspectRatio="xMidYMid meet">

<g transform="translate(0.000000,540.000000) scale(0.100000,-0.100000)"
fill="#000000" stroke="none">
<path d="M2235 3906 c-287 -47 -524 -225 -659 -493 -117 -234 -116 -554 2
-788 86 -172 235 -321 409 -408 28 -15 91 -39 140 -54 l88 -27 430 -4 c300 -2
442 0 468 8 52 15 112 72 133 125 25 67 16 162 -19 209 -41 53 -88 85 -143 95
-27 6 -212 10 -412 10 -234 0 -378 5 -405 12 -115 30 -238 132 -291 241 -122
251 21 550 297 624 40 11 138 14 426 14 254 0 386 4 412 12 98 29 154 118 147
232 -5 78 -39 134 -107 174 l-46 27 -395 2 c-284 1 -417 -2 -475 -11z"/>
<path d="M2321 3235 c-87 -28 -150 -117 -151 -213 0 -91 45 -163 125 -201 43
-20 59 -21 417 -21 423 0 471 -6 568 -65 224 -136 285 -415 139 -634 -48 -72
-94 -110 -186 -154 l-68 -32 -415 -5 c-401 -5 -416 -6 -455 -27 -83 -44 -125
-114 -125 -205 1 -91 51 -169 132 -202 55 -24 822 -23 936 0 168 34 311 113
442 244 133 133 203 261 245 440 22 96 23 279 1 377 -74 338 -324 597 -661
685 -74 20 -112 22 -490 24 -331 3 -418 1 -454 -11z"/>
</g>
</svg>
